<svg width="25" height="26" viewBox="0 0 25 26" fill="none" xmlns="http://www.w3.org/2000/svg">
<path d="M22.7709 10.4517H14.5003V1.80943C14.5003 1.10435 13.9206 0.5 13.225 0.5H10.9061C10.2105 0.5 9.63077 1.10435 9.63077 1.82957V10.4718H1.34091C0.645262 10.4718 0.0655518 11.0761 0.0655518 11.8014V14.1986C0.0655518 14.9239 0.645262 15.5282 1.34091 15.5282H9.63077V24.1704C9.63077 24.8956 10.2105 25.5 10.9061 25.5H13.225C13.9206 25.5 14.5003 24.8956 14.5003 24.1704V15.5282H22.7902C23.4858 15.5282 24.0656 14.9239 24.0656 14.1986V11.7812C24.0462 11.056 23.4858 10.4517 22.7709 10.4517Z" fill="#ABB5C5"/>
</svg>
