<svg width="32" height="50" viewBox="0 0 32 50" fill="none" xmlns="http://www.w3.org/2000/svg">
<path d="M23.0039 33.2272C23.0039 33.062 23.0039 32.884 23.0039 32.7823C22.3938 32.6044 21.8599 32.4646 21.3515 32.2866C20.1312 31.8799 20.1312 31.8671 19.2796 32.8586C19.1652 32.9984 19.0508 33.1256 18.9236 33.2654C17.4492 34.8797 15.3391 35.1975 13.585 33.9899C12.9367 33.5323 12.4283 32.8713 11.8944 32.2612C11.6402 31.9688 11.4368 31.8671 11.0428 32.0197C10.2928 32.312 9.51743 32.5281 8.66579 32.7951C8.66579 32.8332 8.65308 32.9222 8.65308 33.0239C8.65308 36.8245 8.65308 40.6251 8.65308 44.4384C8.65308 45.4172 9.11068 46.129 9.9369 46.6247C11.4241 47.5018 12.9113 48.3916 14.3858 49.3068C15.3518 49.9042 16.2797 49.9169 17.2585 49.3068C18.7076 48.417 20.1566 47.5272 21.6311 46.6883C22.5972 46.129 23.0293 45.3155 23.0293 44.2223C22.9912 40.5361 23.0039 36.888 23.0039 33.2272Z" fill="#28C77B"/>
<path d="M31.1263 14.9483C30.4272 14.3381 29.7281 13.7407 29.029 13.1306C28.3807 12.5713 28.3172 12.3552 28.6095 11.529C28.9019 10.6773 29.2069 9.82568 29.4993 8.96133C29.8044 8.05884 29.512 7.57582 28.5714 7.39786C27.6435 7.21991 26.7283 7.05467 25.8131 6.87671C25.1012 6.73689 24.8979 6.50809 24.758 5.79627C24.5928 4.89378 24.4276 3.97858 24.2496 3.07609C24.0589 2.11004 23.5759 1.8304 22.648 2.14818C21.7455 2.45325 20.843 2.77103 19.9533 3.0888C19.4067 3.29218 18.9872 3.16507 18.6186 2.72018C18.0085 2.00836 17.3983 1.29653 16.7628 0.597423C16.5467 0.368623 16.267 0.190667 16.0255 0C15.8984 0 15.7713 0 15.6315 0C15.3773 0.203378 15.0976 0.368623 14.8815 0.597423C14.2587 1.28382 13.674 1.99565 13.0638 2.68205C12.5935 3.22862 12.3266 3.30489 11.6529 3.07609C10.7631 2.77102 9.88606 2.45325 8.99628 2.14818C8.06837 1.8304 7.58535 2.09734 7.38197 3.06338C7.20402 3.95316 7.03877 4.84293 6.87353 5.73271C6.72099 6.5208 6.53033 6.72418 5.76766 6.87671C4.86517 7.05467 3.96269 7.21991 3.04749 7.39786C2.10687 7.57582 1.81451 8.07155 2.11958 8.96133C2.42464 9.8511 2.74242 10.7282 3.04749 11.618C3.289 12.3043 3.21273 12.5967 2.66615 13.0797C1.94162 13.7026 1.21709 14.3254 0.505266 14.961C-0.168422 15.5584 -0.168422 16.1177 0.505266 16.7024C1.21709 17.3252 1.92891 17.9354 2.62802 18.5455C3.22544 19.0667 3.289 19.3082 3.02206 20.0708C2.70429 20.9733 2.38651 21.8631 2.08144 22.7783C1.82722 23.5537 2.10687 24.0494 2.90766 24.2146C3.861 24.4053 4.81433 24.5833 5.76766 24.7739C6.53033 24.9265 6.721 25.1171 6.86082 25.8671C7.03877 26.7823 7.20402 27.7102 7.39468 28.6254C7.58535 29.5406 8.05566 29.8075 8.94544 29.5025C9.84793 29.1974 10.7504 28.8923 11.6402 28.5619C12.1995 28.3585 12.6317 28.4602 13.0257 28.9178C13.6485 29.6677 14.2841 30.3922 14.9324 31.1295C15.5298 31.8032 16.0891 31.8032 16.6865 31.1295C17.2966 30.4304 17.8941 29.7313 18.5042 29.0322C19.0635 28.3839 19.305 28.333 20.1185 28.6127C20.9574 28.905 21.7964 29.1974 22.6353 29.4898C23.5759 29.8075 24.0335 29.5533 24.2369 28.5746C24.4148 27.6721 24.5928 26.7696 24.758 25.8544C24.8979 25.1299 25.0885 24.9265 25.8004 24.7866C26.7537 24.596 27.707 24.418 28.6604 24.2274C29.512 24.0494 29.7916 23.5664 29.512 22.7402C29.1942 21.825 28.8637 20.9098 28.5587 19.9946C28.3426 19.359 28.4188 19.0539 28.9146 18.6218C29.6518 17.9862 30.3891 17.3507 31.1136 16.7151C31.8 16.0923 31.8 15.5457 31.1263 14.9483ZM19.4321 22.3461C18.4152 23.1978 17.1822 23.6172 15.7205 23.6172C14.5765 23.6172 13.5596 23.3503 12.6571 22.8291C11.7546 22.308 11.1063 21.5326 10.6996 20.5157L13.1655 19.0921C13.5341 20.2234 14.3731 20.7827 15.7205 20.7827C16.4577 20.7827 17.0297 20.6047 17.4492 20.2488C17.8559 19.8929 18.072 19.4099 18.072 18.7997C18.072 18.2023 17.8686 17.7193 17.4492 17.3507C17.0424 16.982 16.4577 16.8041 15.7205 16.8041H15.0976L13.9917 15.1262L16.8772 11.3637H11.1317V8.66897H20.3473V11.0587L17.6017 14.6178C18.5932 14.9101 19.394 15.4186 20.0168 16.1558C20.6397 16.8931 20.9447 17.7701 20.9447 18.7997C20.9447 20.3123 20.4363 21.4945 19.4321 22.3461Z" fill="#28C77B"/>
</svg>
