<svg width="32" height="50" viewBox="0 0 32 50" fill="none" xmlns="http://www.w3.org/2000/svg">
<path d="M23.0049 33.2283C23.0049 33.063 23.0049 32.885 23.0049 32.7834C22.3947 32.6054 21.8608 32.4656 21.3524 32.2876C20.1321 31.8808 20.1321 31.8681 19.2804 32.8596C19.166 32.9995 19.0516 33.1266 18.9245 33.2664C17.4499 34.8808 15.3398 35.1986 13.5856 33.991C12.9373 33.5333 12.4288 32.8723 11.8949 32.2622C11.6407 31.9698 11.4373 31.8681 11.0432 32.0207C10.2932 32.313 9.51783 32.5291 8.66615 32.7961C8.66615 32.8342 8.65344 32.9232 8.65344 33.0249C8.65344 36.8257 8.65344 40.6264 8.65344 44.4399C8.65344 45.4187 9.11106 46.1306 9.93732 46.6263C11.4246 47.5034 12.9118 48.3933 14.3864 49.3085C15.3525 49.9059 16.2804 49.9187 17.2592 49.3085C18.7084 48.4187 20.1575 47.5289 21.632 46.6899C22.5981 46.1306 23.0303 45.317 23.0303 44.2238C22.9922 40.5375 23.0049 36.8892 23.0049 33.2283Z" fill="#F4CD0D"/>
<path d="M31.1276 14.9489C30.4285 14.3387 29.7294 13.7413 29.0302 13.1311C28.3819 12.5718 28.3184 12.3557 28.6107 11.5295C28.9031 10.6778 29.2082 9.8261 29.5005 8.96171C29.8056 8.05918 29.5133 7.57614 28.5726 7.39818C27.6446 7.22021 26.7294 7.05496 25.8142 6.877C25.1023 6.73717 24.8989 6.50836 24.7591 5.79651C24.5939 4.89398 24.4286 3.97875 24.2506 3.07622C24.06 2.11013 23.5769 1.83048 22.649 2.14827C21.7464 2.45335 20.8439 2.77114 19.9541 3.08893C19.4075 3.29232 18.988 3.1652 18.6194 2.72029C18.0092 2.00844 17.3991 1.29659 16.7635 0.597447C16.5474 0.368638 16.2677 0.190675 16.0262 0C15.8991 0 15.772 0 15.6321 0C15.3779 0.203386 15.0983 0.368638 14.8822 0.597447C14.2593 1.28388 13.6746 1.99573 13.0644 2.68216C12.5941 3.22876 12.3271 3.30503 11.6534 3.07622C10.7636 2.77114 9.88648 2.45335 8.99667 2.14827C8.06872 1.83048 7.58567 2.09742 7.38229 3.06351C7.20432 3.95332 7.03907 4.84314 6.87382 5.73295C6.72128 6.52107 6.53061 6.72446 5.76791 6.877C4.86538 7.05496 3.96286 7.22021 3.04762 7.39818C2.10696 7.57614 1.81459 8.07189 2.11967 8.96171C2.42475 9.85153 2.74254 10.7286 3.04762 11.6184C3.28914 12.3049 3.21287 12.5972 2.66627 13.0803C1.9417 13.7032 1.21714 14.326 0.505288 14.9616C-0.168429 15.5591 -0.168429 16.1184 0.505288 16.7031C1.21714 17.326 1.92899 17.9361 2.62813 18.5463C3.22558 19.0675 3.28914 19.309 3.02219 20.0717C2.7044 20.9742 2.38661 21.864 2.08153 22.7793C1.8273 23.5547 2.10696 24.0504 2.90779 24.2157C3.86116 24.4064 4.81454 24.5843 5.76791 24.775C6.53061 24.9275 6.72128 25.1182 6.86111 25.8682C7.03907 26.7834 7.20432 27.7114 7.395 28.6266C7.58567 29.5419 8.056 29.8088 8.94582 29.5037C9.84835 29.1987 10.7509 28.8936 11.6407 28.5631C12.2 28.3597 12.6322 28.4614 13.0263 28.919C13.6491 29.669 14.2847 30.3935 14.933 31.1308C15.5305 31.8045 16.0898 31.8045 16.6872 31.1308C17.2974 30.4317 17.8948 29.7325 18.505 29.0334C19.0643 28.3851 19.3058 28.3343 20.1194 28.6139C20.9583 28.9063 21.7973 29.1987 22.6363 29.491C23.5769 29.8088 24.0345 29.5546 24.2379 28.5758C24.4159 27.6733 24.5939 26.7707 24.7591 25.8555C24.8989 25.1309 25.0896 24.9275 25.8015 24.7877C26.7548 24.597 27.7082 24.4191 28.6616 24.2284C29.5133 24.0504 29.7929 23.5674 29.5133 22.7411C29.1955 21.8259 28.865 20.9107 28.5599 19.9954C28.3438 19.3598 28.4201 19.0548 28.9158 18.6226C29.6531 17.987 30.3904 17.3514 31.1149 16.7158C31.8014 16.0929 31.8014 15.5463 31.1276 14.9489ZM18.2126 23.631H15.0601V10.9956L12.0475 11.8345L11.272 9.13967L15.4669 7.65241H18.1999V23.631H18.2126Z" fill="#F4CD0D"/>
</svg>
