<svg width="32" height="50" viewBox="0 0 32 50" fill="none" xmlns="http://www.w3.org/2000/svg">
<path d="M23.0039 33.2145C23.0039 33.0493 23.0039 32.8713 23.0039 32.7697C22.3938 32.5917 21.8599 32.4519 21.3515 32.2739C20.1312 31.8672 20.1312 31.8544 19.2796 32.8459C19.1652 32.9857 19.0508 33.1128 18.9236 33.2527C17.4492 34.867 15.3391 35.1848 13.585 33.9772C12.9367 33.5196 12.4283 32.8586 11.8944 32.2485C11.6402 31.9561 11.4368 31.8545 11.0428 32.007C10.2928 32.2993 9.51743 32.5154 8.66579 32.7824C8.66579 32.8205 8.65308 32.9095 8.65308 33.0112C8.65308 36.8118 8.65308 40.6124 8.65308 44.4257C8.65308 45.4045 9.11068 46.1163 9.9369 46.612C11.4241 47.4891 12.9113 48.3789 14.3858 49.2941C15.3518 49.8915 16.2797 49.9042 17.2585 49.2941C18.7076 48.4043 20.1566 47.5145 21.6311 46.6756C22.5972 46.1163 23.0293 45.3028 23.0293 44.2096C22.9912 40.5361 23.0039 36.8753 23.0039 33.2145Z" fill="#FF6565"/>
<path d="M31.1263 14.9483C30.4272 14.3381 29.7281 13.7407 29.029 13.1306C28.3807 12.5713 28.3172 12.3552 28.6095 11.529C28.9019 10.6773 29.2069 9.82568 29.4993 8.96132C29.8044 8.05884 29.512 7.57582 28.5714 7.39786C27.6435 7.2199 26.7283 7.05466 25.8131 6.87671C25.1012 6.73689 24.8979 6.50809 24.758 5.79626C24.5928 4.89378 24.4276 3.97857 24.2496 3.07608C24.0589 2.11004 23.5759 1.8304 22.648 2.14818C21.7455 2.45324 20.843 2.77102 19.9533 3.0888C19.4067 3.29217 18.9872 3.16506 18.6186 2.72018C18.0085 2.00835 17.3983 1.29653 16.7628 0.59742C16.5467 0.36862 16.267 0.190667 16.0255 0C15.8984 0 15.7713 0 15.6315 0C15.3773 0.203378 15.0976 0.36862 14.8815 0.59742C14.2587 1.28382 13.674 1.99564 13.0638 2.68204C12.5935 3.22862 12.3266 3.30488 11.6529 3.07608C10.7631 2.77102 9.88606 2.45324 8.99628 2.14818C8.06837 1.8304 7.58535 2.09733 7.38197 3.06338C7.20402 3.95315 7.03877 4.84293 6.87353 5.73271C6.72099 6.5208 6.53033 6.72417 5.76766 6.87671C4.86517 7.05466 3.96269 7.2199 3.04749 7.39786C2.10687 7.57582 1.81451 8.07155 2.11958 8.96132C2.42464 9.8511 2.74242 10.7282 3.04749 11.6179C3.289 12.3043 3.21273 12.5967 2.66615 13.0797C1.94162 13.7026 1.21709 14.3254 0.505266 14.961C-0.168422 15.5584 -0.168422 16.1177 0.505266 16.7024C1.21709 17.3252 1.92891 17.9354 2.62802 18.5455C3.22544 19.0667 3.289 19.3082 3.02206 20.0708C2.70429 20.9733 2.38651 21.8631 2.08144 22.7783C1.82722 23.5537 2.10687 24.0494 2.90766 24.2146C3.861 24.4053 4.81433 24.5833 5.76766 24.7739C6.53033 24.9265 6.721 25.1171 6.86082 25.8671C7.03877 26.7823 7.20402 27.7102 7.39468 28.6254C7.58535 29.5406 8.05566 29.8075 8.94544 29.5025C9.84793 29.1974 10.7504 28.8923 11.6402 28.5618C12.1995 28.3585 12.6317 28.4602 13.0257 28.9178C13.6485 29.6677 14.2841 30.3922 14.9324 31.1295C15.5298 31.8032 16.0891 31.8032 16.6865 31.1295C17.2966 30.4304 17.8941 29.7313 18.5042 29.0322C19.0635 28.3839 19.305 28.333 20.1185 28.6127C20.9574 28.9051 21.7964 29.1974 22.6353 29.4898C23.5759 29.8075 24.0335 29.5533 24.2369 28.5746C24.4148 27.6721 24.5928 26.7696 24.758 25.8544C24.8979 25.1299 25.0885 24.9265 25.8004 24.7866C26.7537 24.596 27.707 24.418 28.6604 24.2274C29.512 24.0494 29.7916 23.5664 29.512 22.7402C29.1942 21.825 28.8637 20.9098 28.5587 19.9946C28.3426 19.359 28.4188 19.0539 28.9146 18.6218C29.6518 17.9862 30.3891 17.3507 31.1136 16.7151C31.8 16.0923 31.8 15.5457 31.1263 14.9483ZM20.5761 22.5622H10.9029V20.4395L15.8476 15.355C16.9534 14.1983 17.5 13.2323 17.5 12.4569C17.5 11.8976 17.3221 11.44 16.9789 11.0968C16.6229 10.7536 16.1781 10.5756 15.6188 10.5756C14.5256 10.5756 13.7248 11.1349 13.2037 12.2662L10.8013 10.8553C11.2589 9.86382 11.9071 9.10115 12.7588 8.57999C13.6104 8.05884 14.551 7.79191 15.5679 7.79191C16.8772 7.79191 17.9957 8.19866 18.9364 9.02488C19.877 9.8511 20.3473 10.9443 20.3473 12.3425C20.3473 13.8424 19.5592 15.3804 17.9703 16.9693L15.1357 19.8039H20.5761V22.5622Z" fill="#FF6565"/>
</svg>
