<svg width="25" height="24" viewBox="0 0 25 24" fill="none" xmlns="http://www.w3.org/2000/svg">
<path fill-rule="evenodd" clip-rule="evenodd" d="M18.5 2C19.0523 2 19.5 2.44772 19.5 3V5H21.5C22.0523 5 22.5 5.44772 22.5 6C22.5 6.55228 22.0523 7 21.5 7H19.5V9C19.5 9.55228 19.0523 10 18.5 10C17.9477 10 17.5 9.55228 17.5 9V7H15.5C14.9477 7 14.5 6.55228 14.5 6C14.5 5.44772 14.9477 5 15.5 5H17.5V3C17.5 2.44772 17.9477 2 18.5 2ZM9.08579 3.58579C9.46086 3.21071 9.96957 3 10.5 3H12.5C13.0523 3 13.5 3.44772 13.5 4C13.5 4.55228 13.0523 5 12.5 5L10.5 5C10.5 5.79565 10.1839 6.55871 9.62132 7.12132C9.05871 7.68393 8.29565 8 7.5 8H5.5C5.23478 8 4.98043 8.10536 4.79289 8.29289C4.60536 8.48043 4.5 8.73478 4.5 9V18C4.5 18.2652 4.60536 18.5196 4.79289 18.7071C4.98043 18.8946 5.23478 19 5.5 19H19.5C19.7652 19 20.0196 18.8946 20.2071 18.7071C20.3946 18.5196 20.5 18.2652 20.5 18V11C20.5 10.4477 20.9477 10 21.5 10C22.0523 10 22.5 10.4477 22.5 11V18C22.5 18.7957 22.1839 19.5587 21.6213 20.1213C21.0587 20.6839 20.2957 21 19.5 21H5.5C4.70435 21 3.94129 20.6839 3.37868 20.1213C2.81607 19.5587 2.5 18.7957 2.5 18V9C2.5 8.20435 2.81607 7.44129 3.37868 6.87868C3.94129 6.31607 4.70435 6 5.5 6H7.5C7.76522 6 8.01957 5.89464 8.20711 5.70711C8.39464 5.51957 8.5 5.26522 8.5 5C8.5 4.46957 8.71071 3.96086 9.08579 3.58579ZM12.5 11C11.3954 11 10.5 11.8954 10.5 13C10.5 14.1046 11.3954 15 12.5 15C13.6046 15 14.5 14.1046 14.5 13C14.5 11.8954 13.6046 11 12.5 11ZM8.5 13C8.5 10.7909 10.2909 9 12.5 9C14.7091 9 16.5 10.7909 16.5 13C16.5 15.2091 14.7091 17 12.5 17C10.2909 17 8.5 15.2091 8.5 13Z" fill="#F1821C"/>
</svg>
