<svg width="64" height="51" viewBox="0 0 64 51" fill="none" xmlns="http://www.w3.org/2000/svg">
<path d="M63.1388 15.0459C63.1388 10.9493 60.504 8.32812 56.386 8.32812C39.9488 8.32812 23.4942 8.32812 7.05704 8.32812C2.93903 8.32812 0.304199 10.9493 0.304199 15.0459C0.304199 24.4715 0.304199 33.8799 0.304199 43.3055C0.304199 47.3848 2.93903 50.0233 7.05704 50.0233C15.2756 50.0233 23.4942 50.0233 31.7302 50.0233C39.9662 50.0233 48.2197 50.0233 56.4557 50.0059C57.1188 50.0059 57.8168 49.9539 58.4624 49.7803C61.3241 49.0339 63.1388 46.6037 63.1388 43.5659C63.1388 34.0535 63.1388 24.541 63.1388 15.0459ZM10.7912 20.8263C9.62208 20.8436 8.66237 19.8715 8.67982 18.7085C8.69727 17.5629 9.63953 16.6429 10.7912 16.6602C11.9254 16.6602 12.8676 17.5976 12.8676 18.7432C12.8676 19.8715 11.9428 20.8263 10.7912 20.8263ZM31.7477 43.7569C23.6512 43.7742 17.0554 37.1953 17.0554 29.141C17.0729 21.104 23.6512 14.5772 31.7302 14.5772C39.8092 14.5772 46.3701 21.1214 46.3876 29.1583C46.3876 37.1953 39.8092 43.7395 31.7477 43.7569Z" fill="black" fill-opacity="0.17"/>
<path d="M41.9729 1.22812C41.7111 0.412265 40.9783 0.0130189 40.1233 0.0130189C34.5221 -0.00433963 28.9209 -0.00433963 23.3197 0.0130189C22.4298 0.0130189 21.6969 0.446982 21.4352 1.28019C20.9291 2.89453 20.5627 4.54359 20.1265 6.22737C27.8739 6.22737 35.5516 6.22737 43.299 6.22737C42.8628 4.52623 42.4789 2.85982 41.9729 1.22812Z" fill="black" fill-opacity="0.17"/>
<path d="M31.765 18.7432C25.9719 18.7259 21.2432 23.3953 21.2432 29.141C21.2432 34.8693 25.9196 39.5561 31.6603 39.5734C37.4535 39.5908 42.1822 34.9214 42.1822 29.1757C42.1997 23.4647 37.5233 18.7606 31.765 18.7432ZM38.0817 31.2587C36.8777 31.3108 35.9703 30.3908 35.9005 29.0715C35.7958 26.8149 34.1032 25.1138 31.8523 25.0096C30.4738 24.9402 29.5664 24.0549 29.6188 22.8225C29.6711 21.6247 30.6483 20.8262 31.9919 20.8436C36.3367 20.9304 40.036 24.6625 40.0883 28.9847C40.1058 30.2519 39.2682 31.2066 38.0817 31.2587Z" fill="black" fill-opacity="0.17"/>
</svg>
