<svg width="32" height="32" viewBox="0 0 32 32" fill="none" xmlns="http://www.w3.org/2000/svg">
<circle cx="16" cy="16" r="16" fill="#EDEAFF"/>
<path fill-rule="evenodd" clip-rule="evenodd" d="M15.9998 9.33366C12.3179 9.33366 9.33317 12.3184 9.33317 16.0003C9.33317 19.6822 12.3179 22.667 15.9998 22.667C19.6817 22.667 22.6665 19.6822 22.6665 16.0003C22.6665 12.3184 19.6817 9.33366 15.9998 9.33366ZM7.6665 16.0003C7.6665 11.398 11.3975 7.66699 15.9998 7.66699C20.6022 7.66699 24.3332 11.398 24.3332 16.0003C24.3332 20.6027 20.6022 24.3337 15.9998 24.3337C11.3975 24.3337 7.6665 20.6027 7.6665 16.0003ZM14.7288 11.2877C15.145 11.0818 15.6033 10.9753 16.0676 10.9766C16.5319 10.9779 16.9896 11.0869 17.4046 11.2952C17.8196 11.5034 18.1807 11.8051 18.4593 12.1766C18.7379 12.548 18.9264 12.9791 19.0101 13.4358C19.0938 13.8925 19.0704 14.3625 18.9416 14.8086C18.8128 15.2547 18.5822 15.6648 18.268 16.0067C17.9538 16.3486 17.5645 16.6128 17.1308 16.7787C17.1238 16.7814 17.1167 16.784 17.1096 16.7865C17.0244 16.8164 16.9512 16.8733 16.9011 16.9484C16.851 17.0236 16.8267 17.1129 16.8318 17.2031C16.8579 17.6626 16.5065 18.0562 16.047 18.0823C15.5875 18.1084 15.1939 17.757 15.1678 17.2975C15.1423 16.8466 15.2639 16.3997 15.5144 16.0239C15.7623 15.6521 16.1231 15.3699 16.5434 15.2189C16.733 15.145 16.9032 15.0287 17.0409 14.8788C17.1806 14.7269 17.2831 14.5446 17.3403 14.3464C17.3975 14.1481 17.408 13.9392 17.3708 13.7362C17.3336 13.5333 17.2498 13.3417 17.1259 13.1766C17.0021 13.0115 16.8417 12.8774 16.6572 12.7848C16.4728 12.6923 16.2693 12.6438 16.063 12.6432C15.8566 12.6427 15.6529 12.69 15.4679 12.7815C15.283 12.8731 15.1218 13.0063 14.9971 13.1707C14.7189 13.5373 14.1961 13.609 13.8295 13.3309C13.4628 13.0527 13.3911 12.5299 13.6693 12.1633C13.9499 11.7934 14.3126 11.4937 14.7288 11.2877ZM15.9998 19.3337C16.4601 19.3337 16.8332 19.7068 16.8332 20.167V20.1753C16.8332 20.6356 16.4601 21.0087 15.9998 21.0087C15.5396 21.0087 15.1665 20.6356 15.1665 20.1753V20.167C15.1665 19.7068 15.5396 19.3337 15.9998 19.3337Z" fill="#F1821C"/>
</svg>
