<svg width="18" height="18" viewBox="0 0 18 18" fill="none" xmlns="http://www.w3.org/2000/svg">
<path d="M18 1.61803C18 2.18082 18 2.74362 18 3.30641C17.9484 3.63002 17.9203 3.95831 17.8406 4.27254C17.1656 6.83794 15.5391 8.4419 12.9609 9.07973C12.8859 9.09849 12.8016 9.12663 12.7453 9.17822C12.4453 9.44085 12.1547 9.71287 11.8594 9.9802C11.0437 10.7165 10.5938 11.6264 10.5797 12.7285C10.5703 13.3851 10.575 14.0417 10.5797 14.6983C10.5797 14.7405 10.5891 14.7874 10.5938 14.839C10.6687 14.839 10.7344 14.839 10.7953 14.839C11.3766 14.839 11.9531 14.839 12.5344 14.839C12.8859 14.839 13.1016 15.0547 13.1063 15.4065C13.1109 15.641 13.1063 15.8755 13.1063 16.11C13.1063 16.382 13.1063 16.6587 13.1063 16.9495C13.2984 16.9495 13.4719 16.9448 13.65 16.9495C13.95 16.9635 14.1844 17.2262 14.1609 17.5076C14.1375 17.7655 13.9734 17.9109 13.7438 18C10.5797 18 7.41562 18 4.25156 18C3.92812 17.8452 3.7875 17.6295 3.84844 17.3669C3.91406 17.0808 4.12031 16.9448 4.48594 16.9448C4.61719 16.9448 4.74844 16.9448 4.88906 16.9448C4.88906 16.4195 4.88906 15.9224 4.88906 15.4205C4.88906 15.0453 5.10469 14.8343 5.47969 14.8343C6.06094 14.8343 6.6375 14.8343 7.21875 14.8343C7.27969 14.8343 7.34531 14.8343 7.42031 14.8343C7.42031 14.1402 7.425 13.4648 7.42031 12.7942C7.41563 11.6264 6.95156 10.6743 6.07031 9.91454C5.80312 9.68473 5.55469 9.44086 5.2875 9.20636C5.21719 9.14539 5.12344 9.0938 5.03438 9.07035C2.55 8.46066 0.9375 6.93174 0.210938 4.48359C0.107812 4.12246 0.0703125 3.72381 0 3.33924C0 2.76707 0 2.19489 0 1.61803C0.117188 1.3038 0.351562 1.19594 0.675 1.20063C1.14375 1.21001 1.6125 1.20532 2.08125 1.20532C2.175 1.20532 2.26406 1.20532 2.3625 1.20532C2.3625 1.02241 2.37656 0.867639 2.35781 0.708181C2.325 0.379885 2.44219 0.140698 2.74219 0C6.91406 0 11.0859 0 15.2578 0C15.5578 0.140698 15.675 0.384575 15.6469 0.708181C15.6328 0.867639 15.6422 1.03179 15.6422 1.20532C16.2141 1.20532 16.7719 1.2147 17.325 1.20063C17.6484 1.19594 17.8828 1.3038 18 1.61803ZM4.10156 7.63992C3.15937 5.9703 2.6625 4.16936 2.45156 2.27462C1.98281 2.27462 1.52344 2.27462 1.06875 2.27462C0.960937 3.61126 1.29375 4.88692 2.025 5.91402C2.55938 6.67379 3.24844 7.25534 4.10156 7.63992ZM13.8609 7.67275C16.0781 6.63158 17.1562 4.38041 16.9172 2.27462C16.4625 2.27462 16.0078 2.27462 15.5484 2.27462C15.3375 4.17405 14.8406 5.97499 13.8609 7.67275Z" fill="#FFD600"/>
</svg>
