<svg width="32" height="32" viewBox="0 0 32 32" fill="none" xmlns="http://www.w3.org/2000/svg">
<circle cx="16" cy="16" r="16" fill="#EDEAFF"/>
<path fill-rule="evenodd" clip-rule="evenodd" d="M13.1548 8.15515C13.4674 7.84259 13.8913 7.66699 14.3333 7.66699H17.6667C18.1087 7.66699 18.5326 7.84259 18.8452 8.15515C19.1577 8.46771 19.3333 8.89163 19.3333 9.33366V11.0003H21.8236C21.8295 11.0003 21.8353 11.0003 21.8412 11.0003H22.6667C23.1269 11.0003 23.5 11.3734 23.5 11.8337C23.5 12.2939 23.1269 12.667 22.6667 12.667H22.6001L21.833 21.8718C21.8231 22.5211 21.5609 23.1416 21.1011 23.6014C20.6323 24.0703 19.9964 24.3337 19.3333 24.3337H12.6667C12.0036 24.3337 11.3677 24.0703 10.8989 23.6014C10.4391 23.1416 10.1769 22.5211 10.167 21.8718L9.39989 12.667H9.33333C8.8731 12.667 8.5 12.2939 8.5 11.8337C8.5 11.3734 8.8731 11.0003 9.33333 11.0003H10.1588C10.1647 11.0003 10.1705 11.0003 10.1764 11.0003H12.6667V9.33366C12.6667 8.89163 12.8423 8.46771 13.1548 8.15515ZM11.0723 12.667L11.8305 21.7645C11.8324 21.7875 11.8333 21.8106 11.8333 21.8337C11.8333 22.0547 11.9211 22.2666 12.0774 22.4229C12.2337 22.5792 12.4457 22.667 12.6667 22.667H19.3333C19.5543 22.667 19.7663 22.5792 19.9226 22.4229C20.0789 22.2666 20.1667 22.0547 20.1667 21.8337C20.1667 21.8106 20.1676 21.7875 20.1695 21.7645L20.9277 12.667H11.0723ZM17.6667 11.0003H14.3333V9.33366H17.6667V11.0003ZM14.3333 14.3337C14.7936 14.3337 15.1667 14.7068 15.1667 15.167V20.167C15.1667 20.6272 14.7936 21.0003 14.3333 21.0003C13.8731 21.0003 13.5 20.6272 13.5 20.167V15.167C13.5 14.7068 13.8731 14.3337 14.3333 14.3337ZM17.6667 14.3337C18.1269 14.3337 18.5 14.7068 18.5 15.167V20.167C18.5 20.6272 18.1269 21.0003 17.6667 21.0003C17.2064 21.0003 16.8333 20.6272 16.8333 20.167V15.167C16.8333 14.7068 17.2064 14.3337 17.6667 14.3337Z" fill="#F1821C"/>
</svg>
