<svg width="32" height="32" viewBox="0 0 32 32" fill="none" xmlns="http://www.w3.org/2000/svg">
<circle cx="16" cy="16" r="16" fill="#EDEAFF"/>
<path d="M16.0002 10.9997C16.9168 10.9997 17.6668 11.7497 17.6668 12.6663C17.6668 13.583 16.9168 14.333 16.0002 14.333C15.0835 14.333 14.3335 13.583 14.3335 12.6663C14.3335 11.7497 15.0835 10.9997 16.0002 10.9997ZM16.0002 19.333C18.2502 19.333 20.8335 20.408 21.0002 20.9997H11.0002C11.1918 20.3997 13.7585 19.333 16.0002 19.333ZM16.0002 9.33301C14.1585 9.33301 12.6668 10.8247 12.6668 12.6663C12.6668 14.508 14.1585 15.9997 16.0002 15.9997C17.8418 15.9997 19.3335 14.508 19.3335 12.6663C19.3335 10.8247 17.8418 9.33301 16.0002 9.33301ZM16.0002 17.6663C13.7752 17.6663 9.3335 18.783 9.3335 20.9997V22.6663H22.6668V20.9997C22.6668 18.783 18.2252 17.6663 16.0002 17.6663Z" fill="#F1821C"/>
</svg>
