<svg width="20" height="14" viewBox="0 0 20 14" fill="none" xmlns="http://www.w3.org/2000/svg">
<path fill-rule="evenodd" clip-rule="evenodd" d="M2.63323 6.99967C4.71483 10.4418 7.17733 11.9997 10 11.9997C12.8227 11.9997 15.2852 10.4418 17.3668 6.99967C15.2852 3.55757 12.8227 1.99967 10 1.99967C7.17733 1.99967 4.71483 3.55757 2.63323 6.99967ZM0.94315 6.58621C3.25601 2.53892 6.26667 0.333008 10 0.333008C13.7334 0.333008 16.744 2.53892 19.0569 6.58621C19.2033 6.84241 19.2033 7.15694 19.0569 7.41314C16.744 11.4604 13.7334 13.6663 10 13.6663C6.26667 13.6663 3.25601 11.4604 0.94315 7.41314C0.796741 7.15694 0.796741 6.84241 0.94315 6.58621ZM10 6.16634C9.53977 6.16634 9.16668 6.53944 9.16668 6.99967C9.16668 7.45991 9.53977 7.83301 10 7.83301C10.4602 7.83301 10.8333 7.45991 10.8333 6.99967C10.8333 6.53944 10.4602 6.16634 10 6.16634ZM7.50001 6.99967C7.50001 5.61896 8.6193 4.49967 10 4.49967C11.3807 4.49967 12.5 5.61896 12.5 6.99967C12.5 8.38039 11.3807 9.49967 10 9.49967C8.6193 9.49967 7.50001 8.38039 7.50001 6.99967Z" fill="#3A4856"/>
</svg>
