<svg width="20" height="20" viewBox="0 0 20 20" fill="none" xmlns="http://www.w3.org/2000/svg">
<path fill-rule="evenodd" clip-rule="evenodd" d="M4.30747 3.37997C4.3961 3.34888 4.48934 3.33301 4.58326 3.33301H15.4166C15.5105 3.33301 15.6038 3.34888 15.6924 3.37997C15.9324 3.46415 16.15 3.60215 16.3284 3.78341C16.5069 3.96466 16.6415 4.18436 16.7219 4.42567C16.8024 4.66697 16.8265 4.92349 16.7925 5.17558C16.7585 5.42766 16.6672 5.66861 16.5257 5.87997C16.5029 5.9141 16.4775 5.9465 16.4499 5.9769L12.4999 10.3218V15.833C12.4999 16.1487 12.3216 16.4372 12.0393 16.5784C11.757 16.7195 11.4191 16.6891 11.1666 16.4997L7.83326 13.9997C7.62342 13.8423 7.49993 13.5953 7.49993 13.333V10.3218L3.54998 5.9769C3.52234 5.9465 3.49699 5.9141 3.47414 5.87997C3.33262 5.6686 3.24136 5.42765 3.20735 5.17558C3.17334 4.9235 3.19747 4.66698 3.27791 4.42567C3.35835 4.18436 3.49295 3.96466 3.67141 3.78341C3.84986 3.60215 4.06744 3.46415 4.30747 3.37997ZM4.91402 4.99967L8.94988 9.43911C9.08933 9.59251 9.16659 9.79237 9.16659 9.99967V12.9163L10.8333 14.1663V9.99967C10.8333 9.79237 10.9105 9.59251 11.05 9.43911L15.0858 4.99967H4.91402Z" fill="#F1821C"/>
</svg>
