<svg width="18" height="16" viewBox="0 0 18 16" fill="none" xmlns="http://www.w3.org/2000/svg">
<path fill-rule="evenodd" clip-rule="evenodd" d="M6.0094 2.00969C5.55182 1.96088 5.0891 2.00734 4.65036 2.14614C4.21162 2.28495 3.80638 2.51309 3.46014 2.81621C3.11391 3.11933 2.83419 3.49085 2.63859 3.90738C2.443 4.32391 2.33576 4.77643 2.32365 5.23645C2.31153 5.69646 2.39479 6.15399 2.56819 6.58025C2.74158 7.0065 3.00136 7.39223 3.33115 7.71316L3.33642 7.71828L3.33639 7.7183L8.99999 13.3275L14.6636 7.7183C14.6808 7.7012 14.6987 7.68501 14.717 7.66973C15.0201 7.35884 15.2597 6.99154 15.4221 6.58837C15.5935 6.16287 15.6753 5.70656 15.6622 5.24801C15.6492 4.78946 15.5417 4.33854 15.3463 3.92347C15.151 3.50839 14.8721 3.13811 14.5271 2.83578C14.1821 2.53346 13.7784 2.3056 13.3412 2.16647C12.9041 2.02734 12.443 1.97993 11.9867 2.02722C11.5304 2.07451 11.0888 2.21546 10.6894 2.44128C10.2901 2.66709 9.94173 2.97289 9.66604 3.33954C9.50813 3.54955 9.26042 3.67279 8.99767 3.67205C8.73491 3.67132 8.48789 3.54671 8.33115 3.33582C8.05665 2.96649 7.70865 2.65799 7.30907 2.42976C6.90949 2.20153 6.46697 2.0585 6.0094 2.00969ZM15.7789 8.95944L9.58639 15.0925C9.26162 15.4141 8.73835 15.4141 8.41358 15.0925L2.16606 8.90494C1.67268 8.42409 1.28398 7.84645 1.02437 7.20826C0.764272 6.56888 0.639381 5.88258 0.657557 5.19256C0.675732 4.50254 0.836582 3.82376 1.12998 3.19896C1.42337 2.57416 1.84295 2.01688 2.36231 1.56221C2.88166 1.10753 3.48952 0.765315 4.14763 0.557107C4.80574 0.348899 5.49983 0.27921 6.18619 0.352427C6.87255 0.425645 7.53632 0.640183 8.13569 0.982532C8.4474 1.16057 8.73818 1.37117 9.00341 1.61023C9.26837 1.37407 9.55844 1.16616 9.86903 0.990515C10.468 0.651799 11.1304 0.44036 11.8149 0.369431C12.4993 0.298501 13.191 0.369609 13.8467 0.578302C14.5024 0.786996 15.108 1.12878 15.6255 1.58227C16.143 2.03576 16.5614 2.5912 16.8544 3.2138C17.1473 3.83641 17.3087 4.51279 17.3282 5.20062C17.3478 5.88844 17.2252 6.5729 16.9681 7.21116C16.7109 7.84942 16.3248 8.42773 15.8339 8.90991C15.8161 8.92738 15.7978 8.94389 15.7789 8.95944Z" fill="white"/>
</svg>
