<svg width="20" height="20" viewBox="0 0 20 20" fill="none" xmlns="http://www.w3.org/2000/svg">
<path fill-rule="evenodd" clip-rule="evenodd" d="M9.99984 3.33366C6.31794 3.33366 3.33317 6.31843 3.33317 10.0003C3.33317 13.6822 6.31794 16.667 9.99984 16.667C13.6817 16.667 16.6665 13.6822 16.6665 10.0003C16.6665 6.31843 13.6817 3.33366 9.99984 3.33366ZM1.6665 10.0003C1.6665 5.39795 5.39746 1.66699 9.99984 1.66699C14.6022 1.66699 18.3332 5.39795 18.3332 10.0003C18.3332 14.6027 14.6022 18.3337 9.99984 18.3337C5.39746 18.3337 1.6665 14.6027 1.6665 10.0003ZM8.7288 5.28773C9.14497 5.08181 9.60326 4.9753 10.0676 4.97658C10.5319 4.97787 10.9896 5.08692 11.4046 5.29515C11.8196 5.50338 12.1807 5.80511 12.4593 6.17657C12.7379 6.54804 12.9264 6.9791 13.0101 7.43582C13.0938 7.89255 13.0704 8.36247 12.9416 8.80858C12.8128 9.2547 12.5822 9.66483 12.268 10.0067C11.9538 10.3486 11.5645 10.6128 11.1308 10.7787C11.1238 10.7814 11.1167 10.784 11.1096 10.7865C11.0244 10.8164 10.9512 10.8733 10.9011 10.9484C10.851 11.0236 10.8267 11.1129 10.8318 11.2031C10.8579 11.6626 10.5065 12.0562 10.047 12.0823C9.58753 12.1084 9.1939 11.757 9.16784 11.2975C9.14227 10.8466 9.26389 10.3997 9.51439 10.0239C9.76228 9.65207 10.1231 9.36992 10.5434 9.2189C10.733 9.14502 10.9032 9.02871 11.0409 8.87885C11.1806 8.72691 11.2831 8.54463 11.3403 8.34635C11.3975 8.14808 11.408 7.93923 11.3708 7.73624C11.3336 7.53325 11.2498 7.34167 11.1259 7.17657C11.0021 7.01148 10.8417 6.87738 10.6572 6.78483C10.4728 6.69228 10.2693 6.64382 10.063 6.64324C9.8566 6.64267 9.65291 6.69001 9.46795 6.78153C9.28298 6.87306 9.12179 7.00626 8.99705 7.17067C8.71887 7.53732 8.19613 7.60904 7.82948 7.33086C7.46283 7.05268 7.39111 6.52994 7.66929 6.16329C7.94994 5.79337 8.31263 5.49366 8.7288 5.28773ZM9.99984 13.3337C10.4601 13.3337 10.8332 13.7068 10.8332 14.167V14.1753C10.8332 14.6356 10.4601 15.0087 9.99984 15.0087C9.5396 15.0087 9.1665 14.6356 9.1665 14.1753V14.167C9.1665 13.7068 9.5396 13.3337 9.99984 13.3337Z" fill="#7C8091"/>
</svg>
