<svg width="21" height="23" viewBox="0 0 21 23" fill="none" xmlns="http://www.w3.org/2000/svg">
<path fill-rule="evenodd" clip-rule="evenodd" d="M0.40431 7.22933C0 8.06296 0 9.01133 0 10.9081V16.8318C0 19.4659 0 20.783 0.862925 21.6014C1.72585 22.4197 3.11471 22.4197 5.89242 22.4197H5.97898V15.4349C5.97898 14.2723 6.96245 13.3879 8.10208 13.3879H12.5214C13.661 13.3879 14.6445 14.2723 14.6445 15.4349V22.4197H14.7311C17.5088 22.4197 18.8976 22.4197 19.7605 21.6014C20.6235 20.783 20.6235 19.4659 20.6235 16.8318V10.9081C20.6235 9.01133 20.6235 8.06296 20.2192 7.22933C19.8149 6.3957 19.0556 5.77851 17.5369 4.54412L16.0638 3.34672C13.319 1.11557 11.9465 0 10.3117 0C8.67693 0 7.30449 1.11557 4.55963 3.34672L3.08653 4.54412C1.56792 5.77851 0.808621 6.3957 0.40431 7.22933ZM13.3445 22.4197V15.4349C13.3445 15.0544 13.0089 14.6879 12.5214 14.6879H8.10208C7.61456 14.6879 7.27898 15.0544 7.27898 15.4349V22.4197H13.3445Z" fill="#ABB5C5"/>
</svg>
