<svg width="32" height="32" viewBox="0 0 32 32" fill="none" xmlns="http://www.w3.org/2000/svg">
<circle cx="16" cy="16" r="16" fill="#EDEAFF"/>
<path fill-rule="evenodd" clip-rule="evenodd" d="M14.3335 9.33301C14.7937 9.33301 15.1668 9.7061 15.1668 10.1663V10.9997H16.0002C16.4604 10.9997 16.8335 11.3728 16.8335 11.833C16.8335 12.2932 16.4604 12.6663 16.0002 12.6663H15.1365C15.02 14.2633 14.5695 15.7891 13.8198 16.9887C13.7953 17.0279 13.7705 17.0667 13.7453 17.1052C14.4267 17.385 15.2406 17.5744 16.1176 17.642L17.7387 13.9946C17.8724 13.6936 18.1708 13.4997 18.5002 13.4997C18.8295 13.4997 19.1279 13.6936 19.2617 13.9946L22.595 21.4946C22.7819 21.9151 22.5925 22.4076 22.1719 22.5945C21.7514 22.7814 21.2589 22.592 21.072 22.1715L20.5512 20.9997H16.4491L15.9283 22.1715C15.7414 22.592 15.249 22.7814 14.8284 22.5945C14.4078 22.4076 14.2184 21.9151 14.4053 21.4946L15.4062 19.2426C14.3857 19.1074 13.4179 18.8268 12.5943 18.4107C11.8881 18.9904 11.063 19.333 10.1668 19.333C9.70659 19.333 9.3335 18.9599 9.3335 18.4997C9.3335 18.0394 9.70659 17.6663 10.1668 17.6663C10.4833 17.6663 10.8197 17.578 11.1554 17.387C10.5476 16.7698 10.1655 16.0149 10.1668 15.165C10.1676 14.7048 10.5413 14.3323 11.0015 14.333C11.4617 14.3337 11.8342 14.7074 11.8335 15.1677C11.833 15.4717 11.9727 15.841 12.3369 16.2138C12.3602 16.1784 12.3834 16.1422 12.4064 16.1054C12.9728 15.1992 13.3516 13.9894 13.4647 12.6663H10.1668C9.70659 12.6663 9.3335 12.2932 9.3335 11.833C9.3335 11.3728 9.70659 10.9997 10.1668 10.9997H13.5002V10.1663C13.5002 9.7061 13.8733 9.33301 14.3335 9.33301ZM17.1899 19.333H19.8105L18.5002 16.3849L17.1899 19.333Z" fill="#F1821C"/>
</svg>
