<svg width="12" height="13" viewBox="0 0 12 13" fill="none" xmlns="http://www.w3.org/2000/svg">
<path fill-rule="evenodd" clip-rule="evenodd" d="M6 1.33366C5.1924 1.33366 4.40294 1.57314 3.73145 2.02181C3.05995 2.47048 2.53658 3.1082 2.22751 3.85432C1.91845 4.60044 1.83757 5.42145 1.99511 6.21353C2.15265 7.00559 2.5415 7.73315 3.11252 8.30421C3.1125 8.30419 3.11254 8.30423 3.11252 8.30421L5.58802 10.7791C5.6974 10.8884 5.84569 10.9498 6.00029 10.9498C6.1549 10.9498 6.30318 10.8884 6.41256 10.7791L8.88743 8.30427C8.88743 8.30427 8.88743 8.30427 8.88743 8.30427C9.45847 7.7332 9.84735 7.00561 10.0049 6.21353C10.1624 5.42145 10.0816 4.60044 9.77249 3.85432C9.46343 3.1082 8.94005 2.47048 8.26856 2.02181C7.59706 1.57314 6.8076 1.33366 6 1.33366ZM3.08329 1.05176C3.94664 0.474892 4.96166 0.166992 6 0.166992C7.03834 0.166992 8.05337 0.474892 8.91672 1.05176C9.78007 1.62862 10.453 2.44855 10.8503 3.40784C11.2477 4.36714 11.3517 5.42272 11.1491 6.44112C10.9466 7.45951 10.4466 8.39497 9.71241 9.12921L7.23731 11.6043C6.90918 11.9321 6.46412 12.1164 6.00029 12.1164C5.53647 12.1164 5.09162 11.9323 4.76348 11.6045L2.28766 9.12927C1.55346 8.39503 1.05341 7.45951 0.85086 6.44112C0.648309 5.42272 0.752293 4.36714 1.14966 3.40784C1.54703 2.44855 2.21993 1.62862 3.08329 1.05176ZM6 4.25018C5.35567 4.25018 4.83333 4.77252 4.83333 5.41685C4.83333 6.06118 5.35567 6.58352 6 6.58352C6.64433 6.58352 7.16667 6.06118 7.16667 5.41685C7.16667 4.77252 6.64433 4.25018 6 4.25018ZM3.66667 5.41685C3.66667 4.12819 4.71134 3.08352 6 3.08352C7.28866 3.08352 8.33333 4.12819 8.33333 5.41685C8.33333 6.70551 7.28866 7.75018 6 7.75018C4.71134 7.75018 3.66667 6.70551 3.66667 5.41685Z" fill="white"/>
</svg>
