<svg width="35" height="35" viewBox="0 0 35 35" fill="none" xmlns="http://www.w3.org/2000/svg">
<path d="M33.6035 7.31204C32.1242 6.65558 30.6555 5.96737 29.1868 5.28974C25.4832 3.59567 21.7903 1.891 18.0867 0.186343C17.661 -0.0148278 17.2459 -0.0783554 16.7989 0.122816C11.5202 2.54746 6.25218 4.9721 0.973483 7.39674C0.441356 7.64026 0.175293 8.04261 0.175293 8.63553C0.175293 9.33434 0.175293 10.0331 0.175293 10.7319C0.175293 11.7696 0.622283 12.2143 1.67589 12.2143C6.89074 12.2143 12.1162 12.2143 17.3311 12.2143C22.6204 12.2143 27.8991 12.2143 33.1884 12.2143C34.0824 12.2143 34.572 11.7272 34.572 10.8484C34.572 10.1708 34.5507 9.49316 34.5826 8.82611C34.6145 8.07437 34.2953 7.6085 33.6035 7.31204Z" fill="#FD7722"/>
<path d="M33.1139 29.3242C27.8778 29.3242 22.6523 29.3242 17.4162 29.3242C12.1269 29.3242 6.84816 29.3242 1.55882 29.3242C0.664849 29.3242 0.175293 29.8007 0.175293 30.6901C0.175293 31.4312 0.175293 32.1618 0.175293 32.9029C0.175293 33.7076 0.686137 34.2159 1.49497 34.2159C12.0736 34.2159 22.6523 34.2159 33.2416 34.2159C34.0505 34.2159 34.5613 33.7076 34.5613 32.9135C34.5613 32.2041 34.5613 31.4842 34.5613 30.7748C34.572 29.7901 34.1037 29.3242 33.1139 29.3242Z" fill="#FD7722"/>
<path d="M3.90015 14.6709C3.90015 18.7367 3.90015 22.7919 3.90015 26.8576C5.52845 26.8576 7.14612 26.8576 8.75315 26.8576C8.75315 22.7813 8.75315 18.7261 8.75315 14.6709C7.12484 14.6709 5.52845 14.6709 3.90015 14.6709Z" fill="#FD7722"/>
<path d="M19.8004 14.6924C18.1615 14.6924 16.5438 14.6924 14.9368 14.6924C14.9368 18.7687 14.9368 22.8133 14.9368 26.8685C16.5651 26.8685 18.1721 26.8685 19.8004 26.8685C19.8004 22.7816 19.8004 18.737 19.8004 14.6924Z" fill="#FD7722"/>
<path d="M26.0049 14.6816C26.0049 18.7686 26.0049 22.8132 26.0049 26.8578C27.6438 26.8578 29.2615 26.8578 30.8685 26.8578C30.8685 22.7814 30.8685 18.7474 30.8685 14.6816C29.2402 14.6816 27.6332 14.6816 26.0049 14.6816Z" fill="#FD7722"/>
</svg>
