<svg width="46" height="54" viewBox="0 0 46 54" fill="none" xmlns="http://www.w3.org/2000/svg">
<path d="M45.7851 12.766V15.3493C45.7818 16.5517 45.4987 17.7368 44.9584 18.811C44.434 19.8944 43.6645 20.8408 42.7109 21.5751C41.7586 22.302 40.655 22.8053 39.4817 23.0476C38.3012 23.2729 37.0864 23.2465 35.9167 22.9701L24.9634 19.8701V41.1051C24.9702 43.9542 23.9936 46.7183 22.1985 48.9308C20.4035 51.1433 17.8999 52.6686 15.1106 53.2491C12.3213 53.8296 9.41712 53.4299 6.88841 52.1173C4.3597 50.8047 2.36139 48.6597 1.2309 46.0445C0.100409 43.4293 -0.0930044 40.5041 0.683316 37.7628C1.45964 35.0215 3.15813 32.6321 5.49201 30.998C7.82589 29.3639 10.6522 28.5852 13.4936 28.7935C16.3351 29.0017 19.0177 30.1841 21.0884 32.141V2.35512C21.0613 2.18396 21.0613 2.00961 21.0884 1.83845V1.63178C21.2135 1.34484 21.4053 1.09195 21.648 0.894223C21.8907 0.696495 22.1771 0.559655 22.4834 0.495117H23.6201L39.8951 5.11928C41.5551 5.56616 43.0195 6.55232 44.0577 7.92257C45.0959 9.29283 45.649 10.9694 45.6301 12.6885L45.7851 12.766Z" fill="black" fill-opacity="0.17"/>
</svg>
