<svg width="140" height="29" viewBox="0 0 140 29" fill="none" xmlns="http://www.w3.org/2000/svg">
<path d="M11.6718 5.70605V23.409H6.7756V5.70605H0V1.2124H18.4474V5.70605H11.6718Z" fill="url(#paint0_linear_2020_12601)"/>
<path d="M32.4685 23.4338V13.9774C32.4685 12.8416 32.2212 11.9774 31.7019 11.3849C31.1826 10.7923 30.4655 10.5207 29.5505 10.5207C28.6108 10.5207 27.8937 10.817 27.3497 11.3849C26.8057 11.9774 26.5337 12.8169 26.5337 13.9774V23.4338H21.7116V0.249512H26.5337V8.84176C26.8057 8.4714 27.1024 8.12574 27.4486 7.80476C27.7701 7.48379 28.141 7.1875 28.5367 6.91591C28.9323 6.66901 29.3774 6.44679 29.872 6.29865C30.3666 6.15051 30.9106 6.07644 31.5288 6.07644C33.3834 6.07644 34.793 6.64432 35.8068 7.75538C36.8207 8.86645 37.3153 10.4219 37.3153 12.3972V23.4091H32.4685V23.4338Z" fill="url(#paint1_linear_2020_12601)"/>
<path d="M41.5933 4.54564V0.249512H46.6873V4.54564H41.5933ZM41.7169 23.4338V6.4221H46.539V23.4338H41.7169Z" fill="url(#paint2_linear_2020_12601)"/>
<path d="M61.8706 23.4337V13.9773C61.8706 12.8415 61.6233 11.9774 61.104 11.3848C60.5847 10.7922 59.8676 10.5206 58.9526 10.5206C58.0129 10.5206 57.2958 10.8169 56.7518 11.3848C56.2078 11.9774 55.9358 12.8169 55.9358 13.9773V23.4337H51.1137V6.42205H55.9358V8.8664C56.2078 8.49604 56.5045 8.15037 56.8507 7.8294C57.1722 7.50843 57.5431 7.21214 57.9388 6.94055C58.3344 6.69364 58.7795 6.47143 59.2741 6.32329C59.7687 6.17515 60.3127 6.10107 60.9309 6.10107C62.7855 6.10107 64.1951 6.66895 65.2089 7.78002C66.2228 8.89109 66.7174 10.4466 66.7174 12.4218V23.4337H61.8706Z" fill="url(#paint3_linear_2020_12601)"/>
<path d="M87.4646 23.7053C87.0689 24.8411 86.4755 25.7546 85.6842 26.4706C84.8928 27.1866 83.9037 27.7298 82.7167 28.0508C81.5298 28.3965 80.145 28.5693 78.5623 28.5693C77.1528 28.5693 75.8175 28.4212 74.5563 28.1002C73.2952 27.8039 72.1082 27.3595 71.0202 26.7916L72.677 23.1621C73.5672 23.6559 74.4574 24.0263 75.3724 24.2979C76.2626 24.5695 77.3012 24.7176 78.4387 24.7176C80.0955 24.7176 81.3072 24.3226 82.0985 23.5325C82.8898 22.7424 83.2855 21.6066 83.2855 20.0758V19.261C82.5684 20.1252 81.7771 20.8165 80.9363 21.2857C80.0955 21.7795 79.0075 22.0264 77.7216 22.0264C76.7324 22.0264 75.768 21.8535 74.8531 21.5079C73.9381 21.1622 73.1468 20.6437 72.4297 19.9771C71.7373 19.3104 71.1685 18.4709 70.7482 17.4833C70.3278 16.4957 70.1299 15.3847 70.1299 14.1008V14.0267C70.1299 12.7675 70.3525 11.6317 70.7729 10.6441C71.1933 9.65649 71.762 8.84171 72.4544 8.15038C73.1468 7.48374 73.9629 6.96524 74.8778 6.61957C75.7928 6.27391 76.7324 6.10107 77.6968 6.10107C79.0075 6.10107 80.0955 6.34798 80.9363 6.84179C81.7771 7.33559 82.5436 7.92816 83.1866 8.64418V6.42205H88.0086V19.6067C88.0581 21.1869 87.8602 22.5695 87.4646 23.7053ZM83.2855 14.0267C83.2855 13.4588 83.1866 12.9156 82.964 12.4465C82.7415 11.9527 82.4695 11.533 82.0985 11.1873C81.7276 10.8416 81.2825 10.57 80.7879 10.3725C80.2686 10.175 79.7246 10.0762 79.1311 10.0762C78.5376 10.0762 77.9936 10.175 77.499 10.3725C77.0045 10.57 76.5593 10.8416 76.1884 11.1873C75.8175 11.533 75.5207 11.9527 75.3229 12.4465C75.1004 12.9403 75.0015 13.4588 75.0015 14.0267V14.1008C75.0015 15.2859 75.3971 16.2488 76.1884 16.9648C76.9797 17.6809 77.9689 18.0512 79.1558 18.0512C79.7493 18.0512 80.2933 17.9524 80.8126 17.7549C81.3319 17.5574 81.7523 17.2858 82.1232 16.9401C82.4942 16.5945 82.7909 16.1747 82.9887 15.6809C83.2113 15.1871 83.3102 14.6686 83.3102 14.1008V14.0267H83.2855Z" fill="url(#paint4_linear_2020_12601)"/>
<path d="M104.379 20.7179C104.057 21.4092 103.588 21.9771 102.994 22.4216C102.401 22.866 101.708 23.2116 100.917 23.4092C100.126 23.6314 99.26 23.7548 98.3451 23.7548C97.1334 23.7548 95.897 23.5573 94.6358 23.1376C93.3746 22.7178 92.163 22.0759 91.0255 21.187L93.1026 18.002C94.0423 18.6686 94.9573 19.1871 95.8722 19.5328C96.7872 19.8784 97.6527 20.0513 98.4687 20.0513C99.1611 20.0513 99.6804 19.9278 100.002 19.7056C100.323 19.4834 100.496 19.1624 100.496 18.7921V18.718C100.496 18.4711 100.398 18.2489 100.2 18.0514C100.002 17.8538 99.7546 17.7057 99.4331 17.5576C99.1117 17.4094 98.716 17.286 98.2956 17.1625C97.8752 17.0391 97.4301 16.8909 96.9603 16.7428C96.3668 16.5699 95.7733 16.3724 95.1551 16.1255C94.5616 15.8786 93.9929 15.5576 93.523 15.1626C93.0285 14.7675 92.6328 14.2984 92.3361 13.7305C92.0393 13.1627 91.8662 12.4713 91.8662 11.6319V11.5578C91.8662 10.6936 92.0393 9.92823 92.3608 9.26159C92.6823 8.59495 93.1274 8.02707 93.6961 7.55795C94.2649 7.08884 94.9078 6.74317 95.6744 6.52096C96.4163 6.29875 97.2323 6.17529 98.0978 6.17529C99.1858 6.17529 100.274 6.34813 101.387 6.69379C102.499 7.03946 103.513 7.53326 104.453 8.12583L102.598 11.459C101.758 10.9652 100.917 10.5949 100.126 10.2986C99.3095 10.0023 98.6171 9.87885 97.9989 9.87885C97.4054 9.87885 96.9603 9.97761 96.6635 10.1998C96.3668 10.422 96.2184 10.6936 96.2184 11.0393V11.1134C96.2184 11.3356 96.3173 11.5578 96.5152 11.7306C96.713 11.9035 96.9603 12.0763 97.2817 12.2491C97.6032 12.3973 97.9742 12.5701 98.3698 12.7182C98.7902 12.8664 99.2106 13.0145 99.6804 13.1627C100.274 13.3602 100.867 13.5824 101.486 13.854C102.104 14.1256 102.648 14.4466 103.142 14.8169C103.637 15.1873 104.033 15.6564 104.354 16.2243C104.676 16.7675 104.824 17.4341 104.824 18.2242V18.2983C104.873 19.2118 104.7 20.0266 104.379 20.7179Z" fill="url(#paint5_linear_2020_12601)"/>
<path d="M116.224 23.4585C115.606 23.6313 114.888 23.7301 114.097 23.7301C113.355 23.7301 112.688 23.656 112.069 23.4832C111.476 23.3351 110.957 23.0388 110.512 22.6437C110.066 22.2487 109.745 21.7302 109.498 21.0635C109.25 20.4216 109.127 19.6068 109.127 18.5945V10.5208H107.099V6.42216H109.127V2.07666H113.949V6.42216H117.955V10.5455H113.949V17.8044C113.949 18.9155 114.468 19.4587 115.507 19.4587C116.347 19.4587 117.139 19.2612 117.881 18.8661V22.7425C117.386 23.0388 116.817 23.261 116.224 23.4585Z" fill="url(#paint6_linear_2020_12601)"/>
<path d="M138.43 18.3972C137.96 19.4588 137.317 20.3971 136.501 21.2119C135.685 22.0266 134.696 22.6439 133.583 23.113C132.47 23.5821 131.234 23.8043 129.899 23.8043C128.588 23.8043 127.376 23.5821 126.239 23.113C125.126 22.6686 124.137 22.0266 123.321 21.2365C122.505 20.4465 121.862 19.5082 121.392 18.4465C120.922 17.3848 120.7 16.2244 120.7 14.9899V14.9158C120.7 13.6813 120.922 12.5455 121.392 11.4839C121.862 10.4222 122.505 9.48393 123.321 8.66915C124.137 7.85437 125.126 7.23711 126.239 6.76799C127.352 6.29887 128.588 6.07666 129.923 6.07666C131.234 6.07666 132.446 6.29887 133.583 6.76799C134.696 7.21242 135.685 7.85437 136.501 8.64446C137.317 9.43455 137.96 10.3728 138.43 11.4345C138.9 12.4962 139.122 13.6566 139.122 14.8664V14.9405C139.147 16.175 138.9 17.3355 138.43 18.3972ZM134.374 14.9652C134.374 14.3232 134.276 13.7307 134.053 13.1628C133.83 12.5949 133.534 12.1011 133.138 11.6814C132.742 11.2369 132.248 10.8913 131.704 10.6444C131.16 10.3975 130.542 10.274 129.899 10.274C129.206 10.274 128.588 10.3975 128.044 10.6444C127.5 10.8913 127.055 11.2123 126.659 11.632C126.288 12.0517 125.992 12.5455 125.794 13.1134C125.596 13.6813 125.497 14.2739 125.497 14.9158V14.9899C125.497 15.6318 125.596 16.2244 125.818 16.7923C126.041 17.3602 126.338 17.854 126.733 18.2737C127.129 18.7181 127.599 19.0638 128.143 19.3107C128.687 19.5576 129.28 19.6811 129.973 19.6811C130.665 19.6811 131.283 19.5576 131.827 19.3107C132.371 19.0638 132.817 18.7428 133.212 18.3231C133.583 17.9033 133.88 17.4095 134.078 16.8417C134.276 16.2738 134.374 15.6812 134.374 15.0393V14.9652Z" fill="url(#paint7_linear_2020_12601)"/>
<defs>
<linearGradient id="paint0_linear_2020_12601" x1="2.04015" y1="12.3202" x2="136.004" y2="12.3202" gradientUnits="userSpaceOnUse">
<stop stop-color="#FF0000"/>
<stop offset="1" stop-color="#FFD400"/>
</linearGradient>
<linearGradient id="paint1_linear_2020_12601" x1="2.04017" y1="11.8441" x2="136.004" y2="11.8441" gradientUnits="userSpaceOnUse">
<stop stop-color="#FF0000"/>
<stop offset="1" stop-color="#FFD400"/>
</linearGradient>
<linearGradient id="paint2_linear_2020_12601" x1="2.04023" y1="11.8441" x2="136.004" y2="11.8441" gradientUnits="userSpaceOnUse">
<stop stop-color="#FF0000"/>
<stop offset="1" stop-color="#FFD400"/>
</linearGradient>
<linearGradient id="paint3_linear_2020_12601" x1="2.04004" y1="14.7644" x2="136.005" y2="14.7644" gradientUnits="userSpaceOnUse">
<stop stop-color="#FF0000"/>
<stop offset="1" stop-color="#FFD400"/>
</linearGradient>
<linearGradient id="paint4_linear_2020_12601" x1="2.04018" y1="17.3357" x2="136.005" y2="17.3357" gradientUnits="userSpaceOnUse">
<stop stop-color="#FF0000"/>
<stop offset="1" stop-color="#FFD400"/>
</linearGradient>
<linearGradient id="paint5_linear_2020_12601" x1="2.04022" y1="14.955" x2="136.005" y2="14.955" gradientUnits="userSpaceOnUse">
<stop stop-color="#FF0000"/>
<stop offset="1" stop-color="#FFD400"/>
</linearGradient>
<linearGradient id="paint6_linear_2020_12601" x1="2.04031" y1="12.8917" x2="136.004" y2="12.8917" gradientUnits="userSpaceOnUse">
<stop stop-color="#FF0000"/>
<stop offset="1" stop-color="#FFD400"/>
</linearGradient>
<linearGradient id="paint7_linear_2020_12601" x1="2.04005" y1="14.9552" x2="136.004" y2="14.9552" gradientUnits="userSpaceOnUse">
<stop stop-color="#FF0000"/>
<stop offset="1" stop-color="#FFD400"/>
</linearGradient>
</defs>
</svg>
