<svg width="18" height="20" viewBox="0 0 18 20" fill="none" xmlns="http://www.w3.org/2000/svg">
<path fill-rule="evenodd" clip-rule="evenodd" d="M8.99997 2C8.73475 2 8.4804 2.10536 8.29286 2.29289C8.10533 2.48043 7.99997 2.73478 7.99997 3C7.99997 3.38669 7.77702 3.73873 7.42744 3.90403C6.44309 4.36948 5.60395 5.09402 4.99997 6C4.40016 6.89972 4.05471 7.94469 3.99997 9.02436V12C3.99997 12.0402 3.99755 12.0803 3.99272 12.1202C3.91247 12.7832 3.70037 13.4222 3.37018 14H14.6298C14.2996 13.4222 14.0875 12.7832 14.0072 12.1202C14.0024 12.0803 14 12.0402 14 12V9.02436C13.9452 7.9447 13.5998 6.89972 13 6C12.396 5.09402 11.5568 4.36948 10.5725 3.90403C10.2229 3.73873 9.99997 3.38669 9.99997 3C9.99997 2.73478 9.89461 2.48043 9.70708 2.29289C9.51954 2.10536 9.26519 2 8.99997 2ZM11 16H6.99997C6.99997 16.5304 7.21068 17.0391 7.58576 17.4142C7.96083 17.7893 8.46954 18 8.99997 18C9.5304 18 10.0391 17.7893 10.4142 17.4142C10.7893 17.0391 11 16.5304 11 16ZM4.99997 16C4.99997 17.0609 5.4214 18.0783 6.17154 18.8284C6.92169 19.5786 7.9391 20 8.99997 20C10.0608 20 11.0783 19.5786 11.8284 18.8284C12.5785 18.0783 13 17.0609 13 16H17C17.4541 16 17.8513 15.694 17.967 15.2548C18.0827 14.8156 17.8879 14.3536 17.4927 14.1298C17.084 13.8984 16.7354 13.5742 16.4748 13.1834C16.2247 12.8082 16.0624 12.3815 16 11.9354V9C16 8.98437 15.9996 8.96873 15.9989 8.95311C15.9308 7.50291 15.4694 6.09857 14.6641 4.8906C13.9636 3.83991 13.0259 2.97224 11.93 2.35572C11.8079 1.80059 11.5295 1.28688 11.1213 0.87868C10.5587 0.31607 9.79562 0 8.99997 0C8.20432 0 7.44126 0.31607 6.87865 0.87868C6.47045 1.28688 6.19204 1.80059 6.06996 2.35572C4.974 2.97224 4.03633 3.83991 3.33587 4.8906C2.53056 6.09857 2.06914 7.50291 2.00107 8.95311C2.00034 8.96873 1.99997 8.98437 1.99997 9V11.9353C1.93749 12.3815 1.77528 12.8082 1.52511 13.1834C1.26457 13.5742 0.91592 13.8984 0.507216 14.1298C0.112022 14.3536 -0.0827407 14.8156 0.032972 15.2548C0.148685 15.694 0.545812 16 0.99997 16H4.99997Z" fill="#3A4856"/>
</svg>
