<svg width="32" height="32" viewBox="0 0 32 32" fill="none" xmlns="http://www.w3.org/2000/svg">
<circle cx="16" cy="16" r="16" fill="#EDEAFF"/>
<path d="M16.0002 24.125C16.9168 24.125 17.6668 23.375 17.6668 22.4583H14.3335C14.3335 23.375 15.0835 24.125 16.0002 24.125ZM21.0002 19.125V14.9583C21.0002 12.4 19.6418 10.2583 17.2502 9.69167V9.125C17.2502 8.43333 16.6918 7.875 16.0002 7.875C15.3085 7.875 14.7502 8.43333 14.7502 9.125V9.69167C12.3668 10.2583 11.0002 12.3917 11.0002 14.9583V19.125L9.3335 20.7917V21.625H22.6668V20.7917L21.0002 19.125ZM19.3335 19.9583H12.6668V14.9583C12.6668 12.8917 13.9252 11.2083 16.0002 11.2083C18.0752 11.2083 19.3335 12.8917 19.3335 14.9583V19.9583Z" fill="#F1821C"/>
</svg>
