<svg width="32" height="32" viewBox="0 0 32 32" fill="none" xmlns="http://www.w3.org/2000/svg">
<circle cx="16" cy="16" r="16" fill="#EDEAFF"/>
<path fill-rule="evenodd" clip-rule="evenodd" d="M8.39874 9.23223C8.86758 8.76339 9.50346 8.5 10.1665 8.5H15.9998C16.6629 8.5 17.2988 8.76339 17.7676 9.23223C18.2364 9.70107 18.4998 10.337 18.4998 11V12.6667C18.4998 13.1269 18.1267 13.5 17.6665 13.5C17.2063 13.5 16.8332 13.1269 16.8332 12.6667V11C16.8332 10.779 16.7454 10.567 16.5891 10.4107C16.4328 10.2545 16.2209 10.1667 15.9998 10.1667H10.1665C9.94549 10.1667 9.73353 10.2545 9.57725 10.4107C9.42097 10.567 9.33317 10.779 9.33317 11V21C9.33317 21.221 9.42097 21.433 9.57725 21.5893C9.73353 21.7455 9.94549 21.8333 10.1665 21.8333H15.9998C16.2209 21.8333 16.4328 21.7455 16.5891 21.5893C16.7454 21.433 16.8332 21.221 16.8332 21V19.3333C16.8332 18.8731 17.2063 18.5 17.6665 18.5C18.1267 18.5 18.4998 18.8731 18.4998 19.3333V21C18.4998 21.663 18.2364 22.2989 17.7676 22.7678C17.2988 23.2366 16.6629 23.5 15.9998 23.5H10.1665C9.50346 23.5 8.86758 23.2366 8.39874 22.7678C7.9299 22.2989 7.6665 21.663 7.6665 21V11C7.6665 10.337 7.9299 9.70107 8.39874 9.23223ZM20.4106 12.9107C20.736 12.5853 21.2637 12.5853 21.5891 12.9107L24.0891 15.4107C24.4145 15.7362 24.4145 16.2638 24.0891 16.5893L21.5891 19.0893C21.2637 19.4147 20.736 19.4147 20.4106 19.0893C20.0851 18.7638 20.0851 18.2362 20.4106 17.9107L21.488 16.8333H11.8332C11.3729 16.8333 10.9998 16.4602 10.9998 16C10.9998 15.5398 11.3729 15.1667 11.8332 15.1667H21.488L20.4106 14.0893C20.0851 13.7638 20.0851 13.2362 20.4106 12.9107Z" fill="#F1821C"/>
</svg>
