<svg width="32" height="32" viewBox="0 0 32 32" fill="none" xmlns="http://www.w3.org/2000/svg">
<circle cx="16" cy="16" r="16" fill="#EDEAFF"/>
<path d="M7.66683 19.3333H24.3335V21H7.66683V19.3333ZM8.62516 15.9583L9.3335 14.725L10.0418 15.9583L11.1252 15.3333L10.4168 14.1H11.8335V12.85H10.4168L11.1252 11.625L10.0418 11L9.3335 12.225L8.62516 11L7.54183 11.625L8.25016 12.85H6.8335V14.1H8.25016L7.54183 15.3333L8.62516 15.9583ZM14.2085 15.3333L15.2918 15.9583L16.0002 14.725L16.7085 15.9583L17.7918 15.3333L17.0835 14.1H18.5002V12.85H17.0835L17.7918 11.625L16.7085 11L16.0002 12.225L15.2918 11L14.2085 11.625L14.9168 12.85H13.5002V14.1H14.9168L14.2085 15.3333ZM25.1668 12.85H23.7502L24.4585 11.625L23.3752 11L22.6668 12.225L21.9585 11L20.8752 11.625L21.5835 12.85H20.1668V14.1H21.5835L20.8752 15.3333L21.9585 15.9583L22.6668 14.725L23.3752 15.9583L24.4585 15.3333L23.7502 14.1H25.1668V12.85Z" fill="#F1821C"/>
</svg>
