<svg width="32" height="32" viewBox="0 0 32 32" fill="none" xmlns="http://www.w3.org/2000/svg">
<circle cx="16" cy="16" r="16" fill="#EDEAFF"/>
<path fill-rule="evenodd" clip-rule="evenodd" d="M15.4477 7.8762C15.763 7.59726 16.2368 7.59726 16.552 7.8762C18.3364 9.45483 20.6652 10.2768 23.0451 10.1679C23.4286 10.1503 23.7744 10.397 23.8827 10.7653C24.2922 12.1583 24.4175 13.6194 24.2511 15.0618C24.0848 16.5042 23.6302 17.8984 22.9144 19.1616C22.1986 20.4248 21.2361 21.5313 20.0842 22.4152C18.9323 23.2991 17.6145 23.9424 16.2091 24.307C16.0719 24.3426 15.9278 24.3426 15.7906 24.307C14.3852 23.9424 13.0674 23.2991 11.9155 22.4152C10.7636 21.5313 9.80117 20.4248 9.08534 19.1616C8.36951 17.8984 7.91492 16.5042 7.74858 15.0618C7.58223 13.6194 7.70753 12.1583 8.11702 10.7653C8.22529 10.397 8.57114 10.1503 8.95462 10.1679C11.3345 10.2768 13.6634 9.45483 15.4477 7.8762ZM9.55989 11.8425C9.34057 12.8349 9.2875 13.8583 9.40427 14.8708C9.54502 16.0913 9.92968 17.271 10.5354 18.3399C11.1411 19.4088 11.9555 20.345 12.9301 21.0929C13.8474 21.7968 14.8891 22.3204 15.9999 22.6368C17.1106 22.3204 18.1523 21.7968 19.0696 21.0929C20.0443 20.345 20.8586 19.4088 21.4643 18.3399C22.07 17.271 22.4547 16.0913 22.5955 14.8708C22.7122 13.8583 22.6592 12.8349 22.4398 11.8425C20.1056 11.8025 17.8462 11.009 15.9999 9.58136C14.1535 11.009 11.8941 11.8025 9.55989 11.8425ZM14.3332 15.167C14.3332 14.2465 15.0794 13.5003 15.9998 13.5003C16.9203 13.5003 17.6665 14.2465 17.6665 15.167C17.6665 15.7839 17.3313 16.3225 16.8332 16.6107V18.0837C16.8332 18.5439 16.4601 18.917 15.9998 18.917C15.5396 18.917 15.1665 18.5439 15.1665 18.0837V16.6107C14.6683 16.3225 14.3332 15.7839 14.3332 15.167Z" fill="#F1821C"/>
</svg>
