<svg width="24" height="26" viewBox="0 0 24 26" fill="none" xmlns="http://www.w3.org/2000/svg">
<path fill-rule="evenodd" clip-rule="evenodd" d="M12 14.8186C15.8353 14.8186 18.9444 11.7095 18.9444 7.87416C18.9444 4.03883 15.8353 0.929688 12 0.929688C8.16465 0.929688 5.05551 4.03883 5.05551 7.87416C5.05551 11.7095 8.16465 14.8186 12 14.8186ZM23.6316 22.3688C23.9036 22.9062 23.5526 23.5217 22.963 23.6446L20.1608 24.2285C14.7781 25.3503 9.22187 25.3503 3.83912 24.2285L1.03701 23.6445C0.447397 23.5217 0.0964094 22.9062 0.368335 22.3688C1.19622 20.7326 2.58297 19.2948 4.39044 18.2161C6.5735 16.9132 9.2483 16.207 12 16.207C14.7517 16.207 17.4265 16.9132 19.6095 18.2161C21.417 19.2948 22.8037 20.7326 23.6316 22.3688Z" fill="#ABB5C5"/>
</svg>
