<svg width="32" height="32" viewBox="0 0 32 32" fill="none" xmlns="http://www.w3.org/2000/svg">
<circle cx="16" cy="16" r="16" fill="#EDEAFF"/>
<path fill-rule="evenodd" clip-rule="evenodd" d="M15.9944 6.83496C16.3116 6.83496 16.6013 7.01504 16.7417 7.29949L19.1193 12.1173L24.4356 12.8877C24.7497 12.9333 25.0106 13.1532 25.1086 13.4551C25.2067 13.7569 25.1247 14.0882 24.8973 14.3096L21.0449 18.0596L21.9532 23.3549C22.0069 23.6677 21.8782 23.9838 21.6214 24.1702C21.3646 24.3566 21.0241 24.381 20.7434 24.233L15.9998 21.7333L11.2447 24.2334C10.9639 24.381 10.6237 24.3564 10.3671 24.17C10.1104 23.9835 9.98191 23.6675 10.0355 23.3549L10.9439 18.0596L7.09145 14.3096C6.86404 14.0882 6.7821 13.7569 6.88012 13.4551C6.97815 13.1532 7.23911 12.9333 7.55319 12.8877L12.8694 12.1173L15.2471 7.29949C15.3875 7.01504 15.6772 6.83496 15.9944 6.83496ZM15.9944 9.55127L14.17 13.2479C14.0486 13.494 13.8138 13.6645 13.5422 13.7038L9.46555 14.2947L12.4206 17.1712C12.6173 17.3626 12.7071 17.6386 12.6607 17.9092L11.9637 21.9724L15.6124 20.054C15.8554 19.9263 16.1458 19.9264 16.3887 20.0544L20.0247 21.9704L19.328 17.9092C19.2816 17.6386 19.3714 17.3626 19.5681 17.1712L22.5232 14.2947L18.4465 13.7038C18.175 13.6645 17.9402 13.494 17.8188 13.2479L15.9944 9.55127Z" fill="#F1821C"/>
</svg>
