<svg width="32" height="32" viewBox="0 0 32 32" fill="none" xmlns="http://www.w3.org/2000/svg">
<circle cx="16" cy="16" r="16" fill="#EDEAFF"/>
<path d="M9.125 16V21C9.125 21.9375 10.0625 22.875 11 22.875H21C21.9375 22.875 22.875 21.9375 22.875 21V16M9.125 16H12.5625C12.5625 16 13.1875 18.1875 16 18.1875C18.8125 18.1875 19.4375 16 19.4375 16H22.875M9.125 16V18.1875M9.125 16L9.75 12.875M22.875 16L22.25 12.875M14.4375 11.625H17.5625M14.4375 14.125H17.5625M11.9375 14.125V9.125H20.0625V14.125" stroke="#F1821C" stroke-width="1.5" stroke-linecap="round" stroke-linejoin="round"/>
</svg>
