<svg width="32" height="32" viewBox="0 0 32 32" fill="none" xmlns="http://www.w3.org/2000/svg">
<circle cx="16" cy="16" r="16" fill="#EDEAFF"/>
<path fill-rule="evenodd" clip-rule="evenodd" d="M20.9998 9.33366C20.0794 9.33366 19.3332 10.0799 19.3332 11.0003C19.3332 11.2382 19.383 11.4644 19.4728 11.6691C19.479 11.6799 19.4849 11.6909 19.4907 11.702C19.5033 11.7266 19.5146 11.7515 19.5246 11.7767C19.8038 12.3061 20.3597 12.667 20.9998 12.667C21.9203 12.667 22.6665 11.9208 22.6665 11.0003C22.6665 10.0799 21.9203 9.33366 20.9998 9.33366ZM18.4666 13.167C19.078 13.8811 19.9861 14.3337 20.9998 14.3337C22.8408 14.3337 24.3332 12.8413 24.3332 11.0003C24.3332 9.15938 22.8408 7.66699 20.9998 7.66699C19.1589 7.66699 17.6665 9.15938 17.6665 11.0003C17.6665 11.2296 17.6897 11.4534 17.7337 11.6697L13.5331 13.8337C12.9217 13.1196 12.0136 12.667 10.9998 12.667C9.15889 12.667 7.6665 14.1594 7.6665 16.0003C7.6665 17.8413 9.15889 19.3337 10.9998 19.3337C12.0136 19.3337 12.9217 18.8811 13.533 18.167L17.7337 20.331C17.6896 20.5472 17.6665 20.7711 17.6665 21.0003C17.6665 22.8413 19.1589 24.3337 20.9998 24.3337C22.8408 24.3337 24.3332 22.8413 24.3332 21.0003C24.3332 19.1594 22.8408 17.667 20.9998 17.667C19.986 17.667 19.078 18.1196 18.4666 18.8337L14.2659 16.6697C14.31 16.4535 14.3332 16.2296 14.3332 16.0003C14.3332 15.7711 14.31 15.5472 14.2659 15.3309L18.4666 13.167ZM12.4752 15.2242C12.4851 15.2493 12.4964 15.2741 12.509 15.2986C12.5147 15.3097 12.5207 15.3206 12.5268 15.3313C12.6166 15.5361 12.6665 15.7624 12.6665 16.0003C12.6665 16.2383 12.6166 16.4647 12.5267 16.6695C12.5206 16.6802 12.5147 16.691 12.509 16.7021C12.4964 16.7265 12.4852 16.7513 12.4752 16.7763C12.1961 17.3059 11.6401 17.667 10.9998 17.667C10.0794 17.667 9.33317 16.9208 9.33317 16.0003C9.33317 15.0799 10.0794 14.3337 10.9998 14.3337C11.6401 14.3337 12.196 14.6947 12.4752 15.2242ZM19.4727 20.3317C19.4789 20.3209 19.4849 20.3098 19.4907 20.2987C19.5033 20.2741 19.5147 20.2491 19.5247 20.2239C19.8039 19.6945 20.3597 19.3337 20.9998 19.3337C21.9203 19.3337 22.6665 20.0799 22.6665 21.0003C22.6665 21.9208 21.9203 22.667 20.9998 22.667C20.0794 22.667 19.3332 21.9208 19.3332 21.0003C19.3332 20.7625 19.383 20.5363 19.4727 20.3317Z" fill="#F1821C"/>
</svg>
