<svg width="19" height="20" viewBox="0 0 19 20" fill="none" xmlns="http://www.w3.org/2000/svg">
<path d="M16.7612 3.40467L11.7438 0.583658C10.3546 -0.194553 8.64545 -0.194553 7.25618 0.583658L2.23882 3.40467C0.859547 4.18288 0 5.62257 0 7.17899V12.821C0 14.3774 0.859547 15.8171 2.23882 16.5953L7.25618 19.4163C8.64545 20.1946 10.3546 20.1946 11.7438 19.4163L16.7612 16.5953C18.1504 15.8171 19 14.3774 19 12.821V7.17899C19 5.62257 18.1405 4.18288 16.7612 3.40467ZM13.5029 7.63619C13.5029 7.98638 13.2031 8.27821 12.8432 8.27821H10.7543V14.6693C10.7543 15.0195 10.4545 15.3113 10.0947 15.3113H8.90531C8.5455 15.3113 8.24566 15.0195 8.24566 14.6693V8.27821H6.15676C5.79695 8.27821 5.49711 7.98638 5.49711 7.63619V6.4786C5.49711 6.1284 5.79695 5.83658 6.15676 5.83658H12.8532C13.213 5.83658 13.5129 6.1284 13.5129 6.4786V7.63619H13.5029Z" fill="#FE8235"/>
</svg>
