<svg width="14" height="13" viewBox="0 0 14 13" fill="none" xmlns="http://www.w3.org/2000/svg">
<path d="M6.90042 0.239844L8.57224 3.58433C8.63965 3.71758 8.76099 3.79753 8.9093 3.82418L12.6439 4.35717C13.008 4.41046 13.1428 4.85018 12.8866 5.10335L10.1901 7.70166C10.0823 7.79493 10.0418 7.9415 10.0688 8.08807L10.7025 11.7657C10.7699 12.1254 10.3924 12.3919 10.0688 12.2187L6.72515 10.4865C6.6038 10.4199 6.44202 10.4199 6.32067 10.4865L2.96355 12.2187C2.63997 12.3919 2.26246 12.1121 2.32987 11.7657L2.96355 8.08807C2.99051 7.9415 2.93658 7.80825 2.8422 7.70166L0.132234 5.10335C-0.123932 4.85018 0.0108921 4.41046 0.374918 4.35717L4.10955 3.82418C4.25786 3.79753 4.3792 3.71758 4.44661 3.58433L6.10495 0.239844C6.26674 -0.079948 6.73863 -0.079948 6.90042 0.239844Z" fill="#FD7722"/>
</svg>
