<svg width="32" height="32" viewBox="0 0 32 32" fill="none" xmlns="http://www.w3.org/2000/svg">
<circle cx="16" cy="16" r="16" fill="#EDEAFF"/>
<mask id="path-2-inside-1_2715_1725" fill="white">
<path d="M11.6226 9.33323H14.5092C14.6676 9.33328 14.82 9.39344 14.9357 9.50154C15.0514 9.60965 15.1218 9.75765 15.1326 9.91563C15.1434 10.0736 15.0938 10.2298 14.9939 10.3526C14.8939 10.4755 14.7511 10.5558 14.5942 10.5774L14.5092 10.5832H11.6226C11.1476 10.5832 10.6903 10.7634 10.343 11.0874C9.99578 11.4115 9.78445 11.8552 9.75173 12.3291L9.74756 12.4582V20.3749C9.74771 20.8499 9.92811 21.3071 10.2523 21.6542C10.5765 22.0013 11.0204 22.2124 11.4942 22.2449L11.6226 22.2499H19.5392C20.0145 22.2502 20.4721 22.07 20.8195 21.7457C21.167 21.4215 21.3784 20.9774 21.4109 20.5032L21.4151 20.3749V19.9599C21.4151 19.8015 21.4753 19.6491 21.5834 19.5334C21.6915 19.4177 21.8395 19.3473 21.9975 19.3365C22.1554 19.3258 22.3116 19.3753 22.4345 19.4753C22.5573 19.5752 22.6376 19.718 22.6592 19.8749L22.6651 19.9599V20.3749C22.6649 21.1749 22.358 21.9444 21.8074 22.5248C21.2569 23.1052 20.5048 23.4524 19.7059 23.4949L19.5392 23.4999H11.6226C10.8224 23.5 10.0527 23.1931 9.47213 22.6426C8.89151 22.092 8.54419 21.3397 8.50173 20.5407L8.49756 20.3741V12.4574C8.4977 11.6575 8.80454 10.8882 9.35488 10.3078C9.90522 9.72736 10.6572 9.38006 11.4559 9.3374L11.6226 9.33323ZM18.0842 11.4332V9.1249C18.0842 9.00994 18.1158 8.89718 18.1757 8.79904C18.2355 8.7009 18.3213 8.62117 18.4236 8.56862C18.5258 8.51607 18.6406 8.49275 18.7552 8.50121C18.8699 8.50967 18.98 8.54958 19.0734 8.61657L19.1417 8.67323L24.1376 13.4649C24.3709 13.6891 24.3917 14.0482 24.2009 14.2966L24.1376 14.3674L19.1417 19.1607C19.0588 19.2404 18.9555 19.2956 18.8431 19.3204C18.7308 19.3451 18.6139 19.3383 18.5051 19.3008C18.3964 19.2634 18.3001 19.1966 18.2269 19.1079C18.1536 19.0193 18.1063 18.9121 18.0901 18.7982L18.0842 18.7091V16.4382L17.7984 16.4632C15.7984 16.6716 13.8817 17.5724 12.0359 19.1799C11.6026 19.5574 10.9342 19.2007 11.0051 18.6316C11.5592 14.1982 13.8776 11.7557 17.8351 11.4491L18.0842 11.4332ZM19.3342 10.5899V12.0416C19.3342 12.2073 19.2684 12.3663 19.1512 12.4835C19.034 12.6007 18.875 12.6666 18.7092 12.6666C15.4817 12.6666 13.4809 14.0632 12.6167 16.9641L12.5501 17.1957L12.8442 16.9982C14.7076 15.7807 16.6659 15.1666 18.7084 15.1666C18.8595 15.1666 19.0056 15.2214 19.1194 15.3209C19.2333 15.4203 19.3072 15.5576 19.3276 15.7074L19.3334 15.7916V17.2441L22.8017 13.9166L19.3342 10.5899Z"/>
</mask>
<path d="M11.6226 9.33323H14.5092C14.6676 9.33328 14.82 9.39344 14.9357 9.50154C15.0514 9.60965 15.1218 9.75765 15.1326 9.91563C15.1434 10.0736 15.0938 10.2298 14.9939 10.3526C14.8939 10.4755 14.7511 10.5558 14.5942 10.5774L14.5092 10.5832H11.6226C11.1476 10.5832 10.6903 10.7634 10.343 11.0874C9.99578 11.4115 9.78445 11.8552 9.75173 12.3291L9.74756 12.4582V20.3749C9.74771 20.8499 9.92811 21.3071 10.2523 21.6542C10.5765 22.0013 11.0204 22.2124 11.4942 22.2449L11.6226 22.2499H19.5392C20.0145 22.2502 20.4721 22.07 20.8195 21.7457C21.167 21.4215 21.3784 20.9774 21.4109 20.5032L21.4151 20.3749V19.9599C21.4151 19.8015 21.4753 19.6491 21.5834 19.5334C21.6915 19.4177 21.8395 19.3473 21.9975 19.3365C22.1554 19.3258 22.3116 19.3753 22.4345 19.4753C22.5573 19.5752 22.6376 19.718 22.6592 19.8749L22.6651 19.9599V20.3749C22.6649 21.1749 22.358 21.9444 21.8074 22.5248C21.2569 23.1052 20.5048 23.4524 19.7059 23.4949L19.5392 23.4999H11.6226C10.8224 23.5 10.0527 23.1931 9.47213 22.6426C8.89151 22.092 8.54419 21.3397 8.50173 20.5407L8.49756 20.3741V12.4574C8.4977 11.6575 8.80454 10.8882 9.35488 10.3078C9.90522 9.72736 10.6572 9.38006 11.4559 9.3374L11.6226 9.33323ZM18.0842 11.4332V9.1249C18.0842 9.00994 18.1158 8.89718 18.1757 8.79904C18.2355 8.7009 18.3213 8.62117 18.4236 8.56862C18.5258 8.51607 18.6406 8.49275 18.7552 8.50121C18.8699 8.50967 18.98 8.54958 19.0734 8.61657L19.1417 8.67323L24.1376 13.4649C24.3709 13.6891 24.3917 14.0482 24.2009 14.2966L24.1376 14.3674L19.1417 19.1607C19.0588 19.2404 18.9555 19.2956 18.8431 19.3204C18.7308 19.3451 18.6139 19.3383 18.5051 19.3008C18.3964 19.2634 18.3001 19.1966 18.2269 19.1079C18.1536 19.0193 18.1063 18.9121 18.0901 18.7982L18.0842 18.7091V16.4382L17.7984 16.4632C15.7984 16.6716 13.8817 17.5724 12.0359 19.1799C11.6026 19.5574 10.9342 19.2007 11.0051 18.6316C11.5592 14.1982 13.8776 11.7557 17.8351 11.4491L18.0842 11.4332ZM19.3342 10.5899V12.0416C19.3342 12.2073 19.2684 12.3663 19.1512 12.4835C19.034 12.6007 18.875 12.6666 18.7092 12.6666C15.4817 12.6666 13.4809 14.0632 12.6167 16.9641L12.5501 17.1957L12.8442 16.9982C14.7076 15.7807 16.6659 15.1666 18.7084 15.1666C18.8595 15.1666 19.0056 15.2214 19.1194 15.3209C19.2333 15.4203 19.3072 15.5576 19.3276 15.7074L19.3334 15.7916V17.2441L22.8017 13.9166L19.3342 10.5899Z" fill="black"/>
<path d="M11.6226 9.33323V7.83323H11.6038L11.5851 7.8337L11.6226 9.33323ZM14.5092 9.33323L14.5097 7.83323H14.5092V9.33323ZM14.5942 10.5774L14.6969 12.0739L14.748 12.0704L14.7987 12.0634L14.5942 10.5774ZM14.5092 10.5832V12.0832H14.5606L14.6119 12.0797L14.5092 10.5832ZM11.6226 10.5832L11.6223 12.0832H11.6226V10.5832ZM9.75173 12.3291L8.25529 12.2257L8.25339 12.2532L8.2525 12.2807L9.75173 12.3291ZM9.74756 12.4582L8.24834 12.4099L8.24756 12.434V12.4582H9.74756ZM9.74756 20.3749H8.24756L8.24756 20.3754L9.74756 20.3749ZM11.4942 22.2449L11.3916 23.7414L11.4137 23.7429L11.4358 23.7438L11.4942 22.2449ZM11.6226 22.2499L11.5642 23.7488L11.5933 23.7499H11.6226V22.2499ZM19.5392 22.2499L19.5401 20.7499H19.5392V22.2499ZM21.4109 20.5032L22.9074 20.6059L22.9092 20.5789L22.9101 20.5519L21.4109 20.5032ZM21.4151 20.3749L22.9143 20.4236L22.9151 20.3992V20.3749H21.4151ZM21.4151 19.9599L19.9151 19.9594V19.9599H21.4151ZM22.6592 19.8749L24.1557 19.7722L24.1522 19.7211L24.1452 19.6704L22.6592 19.8749ZM22.6651 19.9599H24.1651V19.9085L24.1615 19.8572L22.6651 19.9599ZM22.6651 20.3749L24.1651 20.3752V20.3749H22.6651ZM19.7059 23.4949L19.7509 24.9942L19.7682 24.9937L19.7855 24.9928L19.7059 23.4949ZM19.5392 23.4999V24.9999H19.5617L19.5842 24.9992L19.5392 23.4999ZM11.6226 23.4999V21.9999H11.6224L11.6226 23.4999ZM8.50173 20.5407L7.00219 20.5782L7.00272 20.5993L7.00384 20.6203L8.50173 20.5407ZM8.49756 20.3741H6.99756V20.3928L6.99803 20.4116L8.49756 20.3741ZM8.49756 12.4574L6.99756 12.4571V12.4574H8.49756ZM11.4559 9.3374L11.4184 7.83787L11.3971 7.8384L11.3759 7.83954L11.4559 9.3374ZM18.0842 11.4332L18.1794 12.9302L19.5842 12.8409V11.4332H18.0842ZM18.0842 9.1249H19.5842L19.5842 9.12397L18.0842 9.1249ZM19.0734 8.61657L20.0309 7.46193L19.9903 7.42824L19.9474 7.3975L19.0734 8.61657ZM19.1417 8.67323L20.18 7.59068L20.1409 7.55318L20.0992 7.51859L19.1417 8.67323ZM24.1376 13.4649L25.1768 12.3832L25.1759 12.3824L24.1376 13.4649ZM24.2009 14.2966L25.3191 15.2964L25.3563 15.2548L25.3903 15.2106L24.2009 14.2966ZM24.1376 14.3674L25.1761 15.4498L25.2175 15.41L25.2558 15.3672L24.1376 14.3674ZM19.1417 19.1607L18.1032 18.0784L18.1027 18.0789L19.1417 19.1607ZM18.0901 18.7982L16.5933 18.8962L16.597 18.9533L16.6051 19.0101L18.0901 18.7982ZM18.0842 18.7091H16.5842V18.7581L16.5874 18.807L18.0842 18.7091ZM18.0842 16.4382H19.5842V14.8013L17.9535 14.9439L18.0842 16.4382ZM17.7984 16.4632L17.6677 14.9689L17.6553 14.97L17.643 14.9713L17.7984 16.4632ZM12.0359 19.1799L11.0508 18.0487L11.0506 18.0489L12.0359 19.1799ZM11.0051 18.6316L9.51664 18.4455L9.51654 18.4463L11.0051 18.6316ZM17.8351 11.4491L17.7399 9.95209L17.7295 9.95275L17.7192 9.95355L17.8351 11.4491ZM19.3342 10.5899L20.3727 9.50749L17.8342 7.07214V10.5899H19.3342ZM18.7092 12.6666V14.1666V12.6666ZM12.6167 16.9641L11.1791 16.5358L11.1752 16.5492L12.6167 16.9641ZM12.5501 17.1957L11.1086 16.7809L9.97098 20.734L13.3862 18.4411L12.5501 17.1957ZM12.8442 16.9982L12.0237 15.7425L12.0159 15.7477L12.0081 15.7529L12.8442 16.9982ZM18.7084 15.1666L18.7087 13.6666H18.7084V15.1666ZM19.3276 15.7074L20.824 15.6037L20.8206 15.5544L20.8139 15.5054L19.3276 15.7074ZM19.3334 15.7916H20.8334V15.7396L20.8298 15.6879L19.3334 15.7916ZM19.3334 17.2441H17.8334V20.7619L20.3718 18.3265L19.3334 17.2441ZM22.8017 13.9166L23.8402 14.999L24.9684 13.9166L23.8402 12.8342L22.8017 13.9166ZM11.6226 10.8332H14.5092V7.83323H11.6226V10.8332ZM14.5088 10.8332C14.2871 10.8332 14.0737 10.7489 13.9117 10.5976L15.9598 8.40549C15.5664 8.03793 15.0481 7.8334 14.5097 7.83323L14.5088 10.8332ZM13.9117 10.5976C13.7497 10.4463 13.6512 10.2391 13.6361 10.0179L16.6291 9.81339C16.5924 9.27625 16.3532 8.77305 15.9598 8.40549L13.9117 10.5976ZM13.6361 10.0179C13.621 9.79669 13.6904 9.57802 13.8303 9.40605L16.1575 11.2992C16.4972 10.8816 16.6658 10.3505 16.6291 9.81339L13.6361 10.0179ZM13.8303 9.40605C13.9702 9.23408 14.1701 9.12162 14.3898 9.0914L14.7987 12.0634C15.3321 11.99 15.8177 11.7169 16.1575 11.2992L13.8303 9.40605ZM14.4915 9.08092L14.4065 9.08675L14.6119 12.0797L14.6969 12.0739L14.4915 9.08092ZM14.5092 9.08323H11.6226V12.0832H14.5092V9.08323ZM11.6228 9.08323C10.7678 9.0831 9.9447 9.40744 9.31964 9.99074L11.3664 12.1841C11.4359 12.1193 11.5273 12.0832 11.6223 12.0832L11.6228 9.08323ZM9.31964 9.99074C8.69458 10.574 8.31419 11.3728 8.25529 12.2257L11.2482 12.4324C11.2547 12.3376 11.297 12.2489 11.3664 12.1841L9.31964 9.99074ZM8.2525 12.2807L8.24834 12.4099L11.2468 12.5066L11.2509 12.3774L8.2525 12.2807ZM8.24756 12.4582V20.3749H11.2476V12.4582H8.24756ZM8.24756 20.3754C8.24783 21.2303 8.57255 22.0533 9.15612 22.6781L11.3485 20.6303C11.2837 20.5609 11.2476 20.4694 11.2476 20.3744L8.24756 20.3754ZM9.15612 22.6781C9.7397 23.3028 10.5386 23.6829 11.3916 23.7414L11.5969 20.7484C11.5021 20.7419 11.4134 20.6997 11.3485 20.6303L9.15612 22.6781ZM11.4358 23.7438L11.5642 23.7488L11.681 20.751L11.5526 20.746L11.4358 23.7438ZM11.6226 23.7499H19.5392V20.7499H11.6226V23.7499ZM19.5384 23.7499C20.3938 23.7504 21.2175 23.426 21.843 22.8424L19.7961 20.6491C19.7267 20.7139 19.6351 20.75 19.5401 20.7499L19.5384 23.7499ZM21.843 22.8424C22.4684 22.2587 22.8488 21.4593 22.9074 20.6059L19.9144 20.4006C19.9079 20.4954 19.8656 20.5842 19.7961 20.6491L21.843 22.8424ZM22.9101 20.5519L22.9143 20.4236L19.9158 20.3262L19.9117 20.4546L22.9101 20.5519ZM22.9151 20.3749V19.9599H19.9151V20.3749H22.9151ZM22.9151 19.9604C22.915 20.1821 22.8308 20.3955 22.6794 20.5575L20.4873 18.5094C20.1198 18.9028 19.9152 19.421 19.9151 19.9594L22.9151 19.9604ZM22.6794 20.5575C22.5281 20.7194 22.3209 20.8179 22.0997 20.8331L21.8952 17.84C21.3581 17.8767 20.8549 18.1159 20.4873 18.5094L22.6794 20.5575ZM22.0997 20.8331C21.8785 20.8482 21.6599 20.7788 21.4879 20.6389L23.3811 18.3117C22.9634 17.9719 22.4324 17.8033 21.8952 17.84L22.0997 20.8331ZM21.4879 20.6389C21.3159 20.499 21.2034 20.299 21.1732 20.0794L24.1452 19.6704C24.0718 19.1371 23.7987 18.6514 23.3811 18.3117L21.4879 20.6389ZM21.1627 19.9776L21.1686 20.0626L24.1615 19.8572L24.1557 19.7722L21.1627 19.9776ZM21.1651 19.9599V20.3749H24.1651V19.9599H21.1651ZM21.1651 20.3746C21.165 20.7906 21.0054 21.1907 20.7191 21.4926L22.8958 23.557C23.7105 22.698 24.1648 21.5592 24.1651 20.3752L21.1651 20.3746ZM20.7191 21.4926C20.4328 21.7944 20.0417 21.9749 19.6263 21.997L19.7855 24.9928C20.9678 24.93 22.081 24.4161 22.8958 23.557L20.7191 21.4926ZM19.6609 21.9956L19.4942 22.0006L19.5842 24.9992L19.7509 24.9942L19.6609 21.9956ZM19.5392 21.9999H11.6226V24.9999H19.5392V21.9999ZM11.6224 21.9999C11.2064 21.9999 10.8061 21.8404 10.5042 21.5541L8.44004 23.731C9.29935 24.5458 10.4385 25 11.6227 24.9999L11.6224 21.9999ZM10.5042 21.5541C10.2023 21.2678 10.0217 20.8766 9.99961 20.4611L7.00384 20.6203C7.06668 21.8029 7.58072 22.9162 8.44004 23.731L10.5042 21.5541ZM10.0013 20.5032L9.99709 20.3366L6.99803 20.4116L7.00219 20.5782L10.0013 20.5032ZM9.99756 20.3741V12.4574H6.99756V20.3741H9.99756ZM9.99756 12.4577C9.99763 12.0417 10.1572 11.6417 10.4434 11.3399L8.26639 9.27569C7.45188 10.1347 6.99777 11.2734 6.99756 12.4571L9.99756 12.4577ZM10.4434 11.3399C10.7295 11.038 11.1206 10.8574 11.5359 10.8353L11.3759 7.83954C10.1938 7.90267 9.0809 8.41667 8.26639 9.27569L10.4434 11.3399ZM11.4934 10.8369L11.66 10.8328L11.5851 7.8337L11.4184 7.83787L11.4934 10.8369ZM19.5842 11.4332V9.1249H16.5842V11.4332H19.5842ZM19.5842 9.12397C19.5843 9.28491 19.54 9.44277 19.4562 9.58017L16.8951 8.01791C16.6915 8.3516 16.584 8.73497 16.5842 9.12583L19.5842 9.12397ZM19.4562 9.58017C19.3724 9.71757 19.2523 9.8292 19.1092 9.90276L17.7379 7.23448C17.3903 7.41314 17.0986 7.68422 16.8951 8.01791L19.4562 9.58017ZM19.1092 9.90276C18.966 9.97633 18.8053 10.009 18.6448 9.99714L18.8656 7.00527C18.4758 6.97651 18.0856 7.05582 17.7379 7.23448L19.1092 9.90276ZM18.6448 9.99714C18.4843 9.9853 18.3302 9.92941 18.1994 9.83563L19.9474 7.3975C19.6297 7.16975 19.2554 7.03403 18.8656 7.00527L18.6448 9.99714ZM18.1159 9.77121L18.1842 9.82788L20.0992 7.51859L20.0309 7.46193L18.1159 9.77121ZM18.1034 9.75578L23.0992 14.5475L25.1759 12.3824L20.18 7.59068L18.1034 9.75578ZM23.0984 14.5466C22.7715 14.2326 22.7439 13.7308 23.0115 13.3826L25.3903 15.2106C26.0395 14.3657 25.9703 13.1455 25.1768 12.3832L23.0984 14.5466ZM23.0827 13.2968L23.0194 13.3676L25.2558 15.3672L25.3191 15.2964L23.0827 13.2968ZM23.0991 13.285L18.1032 18.0784L20.1802 20.2431L25.1761 15.4498L23.0991 13.285ZM18.1027 18.0789C18.2188 17.9673 18.3635 17.89 18.5207 17.8554L19.1656 20.7853C19.5474 20.7012 19.8987 20.5135 20.1808 20.2426L18.1027 18.0789ZM18.5207 17.8554C18.678 17.8208 18.8417 17.8303 18.9939 17.8827L18.0163 20.719C18.386 20.8464 18.7837 20.8693 19.1656 20.7853L18.5207 17.8554ZM18.9939 17.8827C19.1462 17.9352 19.2809 18.0286 19.3835 18.1528L17.0703 20.0631C17.3193 20.3646 17.6466 20.5915 18.0163 20.719L18.9939 17.8827ZM19.3835 18.1528C19.486 18.277 19.5523 18.427 19.575 18.5864L16.6051 19.0101C16.6603 19.3972 16.8213 19.7616 17.0703 20.0631L19.3835 18.1528ZM19.5869 18.7003L19.581 18.6111L16.5874 18.807L16.5933 18.8962L19.5869 18.7003ZM19.5842 18.7091V16.4382H16.5842V18.7091H19.5842ZM17.9535 14.9439L17.6677 14.9689L17.9291 17.9575L18.2149 17.9325L17.9535 14.9439ZM17.643 14.9713C15.2761 15.2179 13.0796 16.2819 11.0508 18.0487L13.021 20.3111C14.6839 18.8629 16.3207 18.1253 17.9538 17.9552L17.643 14.9713ZM11.0506 18.0489C11.657 17.5207 12.5925 18.0223 12.4936 18.8168L9.51654 18.4463C9.27599 20.3792 11.5482 21.5942 13.0212 20.3109L11.0506 18.0489ZM12.4935 18.8176C12.7441 16.8128 13.3722 15.4298 14.231 14.5262C15.0729 13.6405 16.2692 13.0749 17.9509 12.9446L17.7192 9.95355C15.4434 10.1299 13.5018 10.9389 12.0566 12.4594C10.6284 13.962 9.8202 16.017 9.51664 18.4455L12.4935 18.8176ZM17.9302 12.946L18.1794 12.9302L17.9891 9.93625L17.7399 9.95209L17.9302 12.946ZM17.8342 10.5899V12.0416H20.8342V10.5899H17.8342ZM17.8342 12.0416C17.8342 11.8095 17.9264 11.5869 18.0905 11.4228L20.2118 13.5442C20.6103 13.1457 20.8342 12.6051 20.8342 12.0416H17.8342ZM18.0905 11.4228C18.2546 11.2588 18.4772 11.1666 18.7092 11.1666V14.1666C19.2728 14.1666 19.8133 13.9427 20.2118 13.5442L18.0905 11.4228ZM18.7092 11.1666C16.8844 11.1666 15.2477 11.5621 13.9136 12.5007C12.5682 13.4473 11.6851 14.8373 11.1792 16.5358L14.0543 17.3923C14.4125 16.19 14.9619 15.4313 15.6399 14.9543C16.3291 14.4694 17.3066 14.1666 18.7092 14.1666V11.1666ZM11.1752 16.5492L11.1086 16.7809L13.9916 17.6106L14.0582 17.3789L11.1752 16.5492ZM13.3862 18.4411L13.6803 18.2436L12.0081 15.7529L11.7139 15.9504L13.3862 18.4411ZM13.6647 18.2539C15.3085 17.1799 16.9852 16.6666 18.7084 16.6666V13.6666C16.3466 13.6666 14.1066 14.3816 12.0237 15.7425L13.6647 18.2539ZM18.7081 16.6666C18.4964 16.6665 18.292 16.5898 18.1326 16.4506L20.1062 14.1911C19.7191 13.853 19.2227 13.6667 18.7087 13.6666L18.7081 16.6666ZM18.1326 16.4506C17.9732 16.3113 17.8697 16.1191 17.8412 15.9094L20.8139 15.5054C20.7447 14.9962 20.4933 14.5292 20.1062 14.1911L18.1326 16.4506ZM17.8311 15.8111L17.837 15.8953L20.8298 15.6879L20.824 15.6037L17.8311 15.8111ZM17.8334 15.7916V17.2441H20.8334V15.7916H17.8334ZM20.3718 18.3265L23.8402 14.999L21.7633 12.8342L18.2949 16.1617L20.3718 18.3265ZM23.8402 12.8342L20.3727 9.50749L18.2958 11.6723L21.7633 14.999L23.8402 12.8342Z" fill="#F1821C" mask="url(#path-2-inside-1_2715_1725)"/>
</svg>
