<svg width="36" height="40" viewBox="0 0 36 40" fill="none" xmlns="http://www.w3.org/2000/svg">
<path d="M17.9998 0.200195L0.868652 10.1002V29.9002L17.9998 39.8002L35.131 29.9002V10.1002L17.9998 0.200195ZM32.8949 28.5838L17.9998 37.1854L3.10472 28.5838V11.3986L17.9998 2.79692L32.8949 11.3986V28.5838Z" fill="#ABB5C5"/>
<path d="M17.9996 2.79688L3.12256 11.3985V28.5838L17.9996 37.1854L32.8947 28.5838V11.3985L17.9996 2.79688ZM30.6406 27.2854L17.9996 34.5887L5.37666 27.2854V12.6969L17.9996 5.3936L30.6406 12.6969V27.2854Z" fill="#ABB5C5"/>
<path d="M25.2489 14.5361H10.7866V16.8083H25.2489V14.5361Z" fill="#ABB5C5"/>
<path d="M25.2489 12.2642H10.7866V14.5363H25.2489V12.2642Z" fill="#ABB5C5"/>
<path d="M13.0047 14.5363L10.7866 12.2822V16.7904L13.0047 14.5363Z" fill="#ABB5C5"/>
<path d="M23.0127 14.5363L25.2307 12.2822V16.7904L23.0127 14.5363Z" fill="#ABB5C5"/>
<path d="M17.9995 29.8279H20.2716V16.7902L17.9995 14.5361V29.8279Z" fill="#ABB5C5"/>
<path d="M15.7456 16.7902V29.8279H17.9997V14.5361L15.7456 16.7902Z" fill="#ABB5C5"/>
<path d="M17.9997 27.6104L20.2718 29.8284H15.7456L17.9997 27.6104Z" fill="#ABB5C5"/>
</svg>
