<svg width="25" height="22" viewBox="0 0 25 22" fill="none" xmlns="http://www.w3.org/2000/svg">
<path fill-rule="evenodd" clip-rule="evenodd" d="M9.93442 1.4C9.93442 0.626801 10.5612 0 11.3344 0H14.5344C15.3076 0 15.9344 0.626801 15.9344 1.4V20.6C15.9344 21.3732 15.3076 22 14.5344 22H11.3344C10.5612 22 9.93442 21.3732 9.93442 20.6V1.4ZM0.934418 11.4C0.934418 10.6268 1.56122 10 2.33442 10H5.53442C6.30762 10 6.93442 10.6268 6.93442 11.4V20.6C6.93442 21.3732 6.30762 22 5.53442 22H2.33442C1.56122 22 0.934418 21.3732 0.934418 20.6V11.4ZM20.3344 7C19.5612 7 18.9344 7.6268 18.9344 8.4V20.6C18.9344 21.3732 19.5612 22 20.3344 22H23.5344C24.3076 22 24.9344 21.3732 24.9344 20.6V8.4C24.9344 7.6268 24.3076 7 23.5344 7H20.3344Z" fill="#ABB5C5"/>
</svg>
